<?xml version="1.0" encoding="UTF-8"?>
<svg width="794px" height="1141px" viewBox="0 0 794 1141" version="1.1" xmlns="http://www.w3.org/2000/svg" xmlns:xlink="http://www.w3.org/1999/xlink">
    <!-- Generator: Sketch 52.6 (67491) - http://www.bohemiancoding.com/sketch -->
    <title>bib-michelin-man copy</title>
    <desc>Created with Sketch.</desc>
    <defs>
        <polygon id="path-1" points="0.06 0.7 793.199 0.7 793.199 1140.94 0.06 1140.94"></polygon>
    </defs>
    <g id="bib-michelin-man-copy" stroke="none" stroke-width="1" fill="none" fill-rule="evenodd">
        <g id="Group">
            <g id="Group-3">
                <mask id="mask-2" fill="white">
                    <use xlink:href="#path-1"></use>
                </mask>
                <g id="Clip-2"></g>
                <path d="M788.976,566.221 C788.976,566.221 792.8,550.776 782.481,533.755 C768.402,510.529 741.083,482.617 741.083,482.617 C741.083,482.616 741.238,477.719 739.46,474.499 C737.949,471.765 735.401,469.628 735.401,469.628 C735.401,469.628 745.404,449.321 736.213,429.043 C728.606,412.262 710.239,404.691 710.239,404.691 C710.239,404.691 709.524,391.07 699.687,375.471 C691.384,362.304 677.771,355.178 677.771,355.178 C677.771,355.178 676.266,348.131 672.899,342.19 C669.37,335.962 663.973,330.826 663.973,330.826 C663.973,330.826 665.414,311.343 657.479,292.677 C649.571,274.085 637.997,268.325 637.997,268.325 C637.997,268.325 642.166,237.165 618.517,210.694 C591.769,180.757 560.886,182.285 560.886,182.285 C560.886,182.285 547.051,178.292 533.287,175.792 C520.287,173.427 507.313,172.544 507.313,172.544 C507.313,172.544 524.581,164.347 521.924,129.524 C519.894,102.968 495.137,87.314 495.137,87.314 C495.137,87.314 495.348,65.638 476.468,40.236 C461.71,20.38 441.564,15.886 441.564,15.886 C441.564,15.886 432.396,-2.772 406.66,1.274 C381.435,5.239 375.815,23.191 375.815,23.191 C375.815,23.191 355.813,35.83 346.595,56.47 C337.146,77.628 338.477,105.172 338.477,105.172 C338.477,105.172 319.194,124.229 320.619,149.815 C321.82,171.364 344.158,190.401 344.158,190.401 C344.158,190.401 334.183,192.955 324.678,197.708 C313.962,203.065 303.573,210.694 303.573,210.694 C303.573,210.694 291.081,204.709 273.541,206.636 C258.12,208.329 244.319,217.187 244.319,217.187 C244.319,217.187 228.619,213.365 216.721,213.94 C203.523,214.58 196.428,218.81 196.428,218.81 L188.312,217.999 C188.312,217.999 183.075,202.828 175.325,193.648 C167.651,184.563 157.468,181.473 157.468,181.473 C157.468,181.473 152.65,165.701 142.855,155.498 C133.171,145.41 118.506,140.888 118.506,140.888 C118.506,140.888 118.066,137.991 116.881,136.018 C115.632,133.934 113.635,132.77 113.635,132.77 C113.635,132.77 119.506,125.793 121.751,115.724 C123.806,106.513 122.23,93.427 122.563,91.374 C123.258,87.075 141.032,67.832 123.376,58.094 C121.349,56.976 113.247,54.406 104.705,59.716 C98.679,63.463 95.992,71.566 94.152,76.761 C93.61,78.297 91.088,74.466 90.096,72.705 C89.304,71.302 76.261,39.746 57.627,21.568 C45.865,10.092 36.521,18.321 36.521,18.321 C36.521,18.321 30.732,13.783 22.724,15.886 C17.251,17.322 14.605,23.191 14.605,23.191 C14.605,23.191 7.35,26.115 4.866,32.118 C2.481,37.879 4.866,46.729 4.866,46.729 C4.866,46.729 -4.902,52.655 3.241,84.068 C12.933,121.447 44.64,162.803 44.64,162.803 C44.64,162.803 43.828,164.742 43.828,166.861 C43.828,169.197 44.64,171.732 44.64,171.732 C44.64,171.732 32.62,185.296 35.71,208.259 C38.234,227.004 53.567,242.35 53.567,242.35 C53.567,242.35 53.845,272.971 73.861,291.864 C93.77,310.661 112.823,311.346 112.823,311.346 C112.823,311.346 118.094,330.863 133.926,343.002 C147.546,353.442 164.772,354.366 164.772,354.366 C164.772,354.366 179.055,375.209 206.169,380.342 C229.538,384.764 247.565,377.905 247.565,377.905 C247.565,377.905 254.704,381.228 262.177,383.588 C270.112,386.095 278.411,387.645 278.411,387.645 C278.411,387.645 275.322,406.464 278.411,424.173 C281.409,441.358 290.587,457.453 290.587,457.453 C290.587,457.453 279.085,479.126 275.975,500.473 C273,520.907 278.411,541.058 278.411,541.058 C278.411,541.058 261.267,570.389 255.684,597.878 C250.755,622.136 257.306,644.957 257.306,644.957 C257.306,644.957 246.586,660.685 243.508,677.426 C240.107,695.909 244.319,715.577 244.319,715.577 C244.319,715.577 229.527,726.92 224.025,742.362 C218.994,756.49 223.215,774.83 223.215,774.83 C223.215,774.83 210.265,794.615 206.169,813.792 C201.199,837.062 209.417,851.132 209.417,851.132 C209.417,851.132 191.519,871.423 191.559,903.081 C191.589,927.905 206.169,947.725 206.169,947.725 C206.169,947.725 202.327,957.746 198.864,968.828 C196.172,977.446 193.688,987.049 189.123,999.676 C182.598,1017.73 172.542,1038 169.643,1058.12 C163.604,1100 174.598,1138.88 206.169,1140.91 C235.476,1142.79 256.71,1112.64 265.425,1078.41 C270.39,1058.9 265.425,1038.65 270.293,1020.78 C277.275,995.15 283.282,973.698 283.282,973.698 C283.282,973.698 310.17,961.857 323.867,939.606 C340.286,912.934 333.607,884.41 333.607,884.41 C333.607,884.41 348.603,870.664 354.711,855.189 C360.777,839.819 357.959,822.722 357.959,822.722 C357.959,822.722 370.769,813.194 375.815,799.994 C381.302,785.642 379.063,767.524 379.063,767.524 C379.063,767.524 394.812,758.735 405.037,737.493 C416.42,713.841 415.589,692.849 415.589,692.849 L422.083,686.355 C422.083,686.355 423.284,707.676 428.576,725.316 C434.23,744.163 443.999,759.407 443.999,759.407 C443.999,759.407 438.727,771.069 438.317,782.136 C437.914,792.984 442.376,803.24 442.376,803.24 C442.376,803.24 428.58,815.44 426.953,843.825 C425.794,864.055 435.069,883.598 435.069,883.598 C435.069,883.598 419.605,907.314 426.953,943.665 C433.206,974.601 452.948,987.1 452.929,988.31 C452.838,993.89 450.454,1001.2 444.811,1017.53 C439.899,1031.75 431.199,1047.74 427.765,1061.37 C424.67,1073.64 426.953,1087.34 426.953,1087.34 C426.953,1087.34 424.061,1095.13 428.576,1103.57 C435.918,1117.3 467.441,1117.01 525.169,1116.56 C579.524,1116.13 637.125,1126.55 656.665,1110.07 C664.56,1103.41 658.29,1086.53 658.29,1086.53 C658.314,1086.55 658.129,1073.95 642.056,1066.23 C621.108,1056.19 589.218,1053.83 562.508,1040.26 C533.483,1025.51 535.722,998.863 535.722,998.863 C535.722,998.863 564.352,988.125 575.495,959.9 C593.499,914.301 574.684,887.657 574.684,887.657 C574.684,887.657 584.941,872.721 586.859,853.565 C589.543,826.746 581.178,809.733 581.178,809.733 C581.178,809.733 590.968,797.694 591.729,783.761 C592.729,765.494 583.613,754.539 583.613,754.539 C583.613,754.539 593.669,746.587 599.846,716.388 C608.028,676.393 599.034,654.697 599.034,654.697 C599.034,654.697 609.263,628.046 609.587,601.126 C609.982,568.513 594.978,548.364 594.978,548.364 C594.978,548.364 605.291,540.505 607.964,513.461 C610.678,485.998 601.471,469.628 601.471,469.628 C601.471,469.628 607.751,475.138 614.457,477.746 C622.276,480.788 630.691,480.992 630.691,480.992 C630.691,480.992 636.731,496.542 655.043,506.967 C674.296,517.928 687.511,513.461 687.511,513.461 C687.511,513.461 690.604,518.002 694.005,520.765 C697.08,523.265 700.498,524.013 700.498,524.013 C700.498,524.013 702.239,530.944 702.121,539.435 C702.034,545.681 699.94,552.403 700.498,559.727 C701.107,567.72 703.055,574.53 704.557,580.832 C709.778,602.756 710.911,607.744 726.474,607.62 C737.463,607.529 739.46,598.689 739.46,598.689 C739.46,598.689 742.954,601.147 745.954,602.748 C749.04,604.393 751.636,605.183 751.636,605.183 C751.636,605.183 753.127,608.127 755.694,610.054 C757.98,611.768 761.376,612.49 761.376,612.49 C761.376,612.49 773.354,622.075 784.916,614.112 C800.782,603.184 788.976,566.221 788.976,566.221" id="Fill-1" fill="#010000" mask="url(#mask-2)"></path>
            </g>
            <path d="M547.896,1045.94 C524.889,1028.77 522.632,1004.83 521.924,1003.73 C521.214,1002.63 506.92,1003.94 492.702,1002.11 C478.511,1000.283 467.082,995.428 465.104,996.426 C463.126,997.428 461.678,1012.83 453.74,1028.89 C442.658,1051.33 434.647,1072.04 439.129,1081.66 C441.083,1085.85 454.035,1089.28 473.221,1090.59 C487.382,1091.55 505.077,1090.75 523.546,1091.4 C544.966,1092.14 566.898,1094.5 586.859,1094.64 C619.171,1094.87 645.084,1092.18 646.115,1088.96 C651.697,1071.5 578.511,1068.79 547.896,1045.94" id="Fill-5" fill="#FFFFFF"></path>
            <path d="M565.266,897.808 C564.678,897.485 548.118,907.754 500.818,908.763 C457.677,909.681 445.453,896.366 443.999,897.399 C442.545,898.429 430.239,917.731 443.999,955.841 C461.274,1003.69 542.474,995.383 559.261,963.958 C579.583,925.92 567.284,898.92 565.266,897.808" id="Fill-6" fill="#FFFFFF"></path>
            <path d="M570.624,815.415 C569.068,814.361 537.025,820.897 508.935,819.473 C480.837,818.052 456.624,810.54 454.551,811.358 C439.746,817.197 433.713,870.242 450.493,885.223 C459.788,893.52 485.393,896.684 503.253,896.588 C532.938,896.425 557.395,889.674 562.508,882.787 C581.112,857.73 572.183,816.47 570.624,815.415" id="Fill-7" fill="#FFFFFF"></path>
            <path d="M572.249,761.032 C572.249,761.032 547.483,769.868 513.805,769.148 C485.247,768.539 457.289,763.567 456.175,764.278 C453.934,765.706 451.517,773.841 451.304,782.949 C451.112,791.255 453.467,797.267 455.363,799.181 C457.259,801.096 485.678,807.882 515.43,808.922 C543.677,809.909 567.999,804.822 569.813,803.24 C571.627,801.657 578.539,793.539 578.743,782.949 C578.945,772.436 572.249,761.032 572.249,761.032" id="Fill-8" fill="#FFFFFF"></path>
            <path d="M589.295,667.684 C587.466,667.247 554.186,680.318 517.864,681.485 C478.421,682.751 442.347,673.427 437.506,672.554 C434.685,672.05 436.743,735.756 454.551,749.669 C465.775,758.435 563.647,762.336 576.307,743.987 C598.802,711.379 590.478,667.969 589.295,667.684" id="Fill-9" fill="#FFFFFF"></path>
            <path d="M581.988,555.671 C581.988,555.671 566.065,560.497 543.84,569.469 C526.652,576.407 507.629,587.08 484.584,593.008 C458.778,599.647 448.059,597.878 448.059,597.878 C448.059,597.878 449.291,613.581 447.247,628.722 C445.234,643.611 439.939,657.946 439.939,657.946 C439.939,657.946 458.759,671.142 504.066,670.121 C557.954,668.902 581.305,657.904 582.8,654.697 C613.883,588.126 581.988,555.671 581.988,555.671" id="Fill-10" fill="#FFFFFF"></path>
            <path d="M435.069,597.878 C434.673,596.811 399.454,596.232 356.336,584.081 C315.079,572.452 290.147,551.504 288.152,552.423 C284.173,554.255 254.403,611.913 272.729,645.768 C291.056,679.623 372.599,704.433 405.848,682.296 C439.101,660.156 436.794,602.506 435.069,597.878" id="Fill-11" fill="#FFFFFF"></path>
            <path d="M400.978,699.342 C400.509,698.407 374.19,709.868 327.112,696.906 C284.832,685.264 265.688,659.6 264.611,660.38 C261.846,662.384 248.138,683.164 262.988,720.447 C277.68,757.331 340.127,779.513 373.381,756.161 C400.7,736.974 402.469,702.307 400.978,699.342" id="Fill-12" fill="#FFFFFF"></path>
            <path d="M366.886,774.83 C365.851,773.825 337.646,787.006 297.891,769.96 C265.273,755.976 252.192,727.786 250.813,728.562 C249.434,729.34 228.834,741.631 237.015,774.018 C246.087,809.934 320.501,824.263 345.783,813.792 C367.822,804.665 368.782,776.668 366.886,774.83" id="Fill-13" fill="#FFFFFF"></path>
            <path d="M345.783,827.591 C345.351,826.955 316.386,834.961 279.223,823.534 C244.373,812.815 230.427,789.335 228.896,790.253 C227.366,791.172 210.576,818.123 224.025,849.507 C238.459,883.188 292.336,894.109 324.678,873.86 C349.096,858.57 347.156,829.609 345.783,827.591" id="Fill-14" fill="#FFFFFF"></path>
            <path d="M323.056,891.718 C321.426,890.406 292.872,902.452 261.365,894.151 C230.55,886.032 218.787,865.44 217.532,864.929 C215.415,864.067 196.546,885.084 206.979,921.749 C218.501,962.221 268.223,975.73 301.139,947.725 C325.147,927.296 325.019,893.295 323.056,891.718" id="Fill-15" fill="#FFFFFF"></path>
            <path d="M266.236,976.135 C265.749,974.769 252.065,976.195 241.071,972.887 C229.314,969.347 220.18,961.123 219.155,961.522 C217.83,962.039 217.567,972.271 216.721,974.51 C215.875,976.748 213.23,976.294 212.662,975.321 C212.096,974.349 212.068,971.856 211.039,972.075 C210.011,972.294 180.576,1036.91 181.007,1061.37 C181.438,1085.81 190.096,1114.13 206.979,1118.18 C229.025,1123.47 256.433,1090.16 258.118,1067.05 C259.805,1043.93 261.804,996.271 262.988,989.932 C264.172,983.594 267.239,978.954 266.236,976.135" id="Fill-16" fill="#FFFFFF"></path>
            <path d="M221.592,1059.74 C210.202,1059.08 191.574,1057.51 191.559,1062.99 C191.542,1068.47 203.892,1065.62 218.344,1067.05 C231.397,1068.33 246.702,1070.98 246.754,1068.67 C246.814,1065.99 232.979,1060.4 221.592,1059.74" id="Fill-18" fill="#010000"></path>
            <path d="M584.425,469.628 C582.236,469.346 546.393,511.234 443.999,511.838 C343.99,512.426 303.212,469.608 301.139,470.441 C299.066,471.272 291.703,486.91 289.775,505.345 C288.064,521.686 289.772,534.143 293.834,540.248 C297.894,546.351 336.453,576.959 424.519,584.081 C465.313,587.378 488.286,580.344 530.04,560.539 C563.77,544.542 583.613,541.87 583.613,541.87 C583.613,541.87 593.957,524.598 594.164,506.156 C594.363,488.494 586.612,469.91 584.425,469.628" id="Fill-19" fill="#FFFFFF"></path>
            <path d="M585.236,382.775 C584.773,382.657 538.188,423.199 440.751,424.173 C347.809,425.101 294.549,385.262 293.021,387.645 C291.495,390.031 280.981,441.734 319.808,468.005 C386.996,513.465 535.564,501.07 573.872,461.512 C609.075,425.158 585.699,382.896 585.236,382.775" id="Fill-20" fill="#FFFFFF"></path>
            <path d="M589.295,277.256 C589.295,277.256 544.955,314.22 465.915,319.463 C398.888,323.909 342.535,313.78 342.535,313.78 C342.535,313.78 337.333,333.701 328.737,349.496 C319.885,365.755 307.333,376.646 307.632,377.905 C307.932,379.167 346.906,411.73 453.74,410.374 C542.533,409.248 589.196,364.94 598.224,347.872 C617.392,311.631 589.295,277.256 589.295,277.256" id="Fill-21" fill="#FFFFFF"></path>
            <path d="M592.541,239.103 C582.142,181.531 493.514,187.156 493.514,187.156 C493.514,187.156 489.861,192.513 485.396,196.894 C481.81,200.416 477.351,203.108 476.468,203.39 C474.485,204.022 473.706,202.972 474.843,200.953 C475.353,200.052 477.764,197.993 479.713,195.271 C482.124,191.907 484.074,187.822 483.772,187.156 C483.229,185.946 473.851,188.031 472.409,187.966 C470.967,187.902 469.992,187.543 471.597,186.345 C473.203,185.142 508.114,168.411 509.748,140.075 C511.289,113.322 478.013,90.144 478.091,88.937 C478.168,87.732 481.338,87.314 481.338,87.314 C481.338,87.314 479.439,62.141 461.856,42.67 C442.272,20.987 426.345,22.407 425.331,22.379 C424.186,22.344 423.874,21.791 424.729,21.118 C425.658,20.384 429.873,20.356 430.201,19.943 C430.525,19.531 425.027,11.168 410.719,12.638 C396.14,14.136 390.051,22.851 390.427,23.191 C390.802,23.529 394.906,22.958 396.109,23.191 C397.31,23.423 398.019,24.863 396.109,25.624 C394.198,26.389 374.927,32.798 361.204,56.47 C350.574,74.807 349.734,100.184 352.276,102.737 C354.818,105.288 357.355,102.705 360.513,101.625 C365.808,99.812 364.807,102.673 362.829,103.549 C362.136,103.856 331.798,118.946 336.854,153.064 C341.636,185.337 375.987,193.964 377.438,194.46 C378.892,194.958 379.827,197.012 378.25,197.708 C376.675,198.401 375.032,198.33 372.568,198.519 C369.776,198.734 366.886,198.519 366.886,198.519 C366.886,198.519 369.737,202.339 373.381,205.012 C377.09,207.735 381.599,209.317 382.309,209.884 C383.275,210.654 383,212.528 380.687,212.317 C378.372,212.106 373.636,211.732 367.699,209.072 C361.867,206.456 357.147,201.765 357.147,201.765 C357.147,201.765 346.171,204.922 336.042,209.884 C326.29,214.659 317.374,221.248 317.374,221.248 C317.374,221.248 330.278,237.637 336.854,256.961 C343.668,276.992 344.158,299.983 344.158,299.983 C344.158,299.983 388.905,311.233 460.233,305.665 C538.369,299.563 597.892,268.72 592.541,239.103" id="Fill-22" fill="#FFFFFF"></path>
            <path d="M305.198,226.929 C289.061,212.373 260.851,221.991 262.988,225.304 C263.957,226.805 288.959,242.371 290.587,299.983 C291.983,349.441 266.608,361.419 265.425,367.353 C264.757,370.69 284.945,375.313 296.269,368.978 C315.273,358.339 328.288,331.369 331.172,303.228 C335.032,265.564 317.103,237.666 305.198,226.929" id="Fill-23" fill="#FFFFFF"></path>
            <path d="M263.8,244.786 C242.281,218.869 210.846,226.258 212.662,228.552 C214.48,230.846 241.48,255.112 230.52,297.547 C219.116,341.691 179.453,350.512 178.57,352.743 C177.69,354.974 202.09,377.169 235.39,368.978 C288.006,356.032 288.025,273.964 263.8,244.786" id="Fill-24" fill="#FFFFFF"></path>
            <path d="M219.155,260.21 C207.146,228.973 189.934,230.986 189.934,230.986 C189.934,230.985 194.03,257.296 168.831,286.182 C152.804,304.554 124.431,308.899 124.188,310.534 C122.661,320.764 148.157,341.325 159.379,341.591 C207.882,342.737 229.891,288.124 219.155,260.21" id="Fill-25" fill="#FFFFFF"></path>
            <path d="M157.468,194.46 C157.468,194.46 156.643,222.052 124.188,240.726 C96.428,256.699 65.743,248.846 65.743,248.846 C65.743,248.846 71.115,281.899 94.152,292.677 C139.498,313.887 176.248,270.351 177.759,244.786 C180.013,206.644 157.867,194.54 157.468,194.46" id="Fill-26" fill="#FFFFFF"></path>
            <path d="M117.693,152.253 C116.572,152.717 116.687,155.419 114.446,158.746 C112.864,161.094 110.871,163.485 110.084,164.025 C108.697,164.971 106.808,165.327 107.142,162.803 C107.469,160.319 114.622,140.876 104.705,139.263 C103.059,138.996 100.168,143.187 99.023,143.322 C97.88,143.459 96.811,143.372 96.589,141.7 C96.483,140.899 99.296,137.925 102.271,133.582 C105.521,128.838 109.019,122.56 110.387,118.16 C113.013,109.732 112.802,94.404 114.446,88.126 C116.091,81.847 123.546,70.826 121.751,68.646 C114.872,60.284 106.381,68.822 103.894,75.139 C101.649,80.839 103.388,90.021 96.589,97.867 C93.192,101.784 88.721,102.587 86.848,101.114 C85.227,99.839 90.849,94.546 90.509,91.309 C90.169,88.068 81.867,75.959 73.861,59.716 C69.417,50.7 62.256,41.023 57.627,34.554 C47.98,21.075 40.484,25.386 40.581,28.062 C40.601,28.593 44.696,34.13 48.697,41.048 C53.226,48.873 57.917,58.466 61.686,64.587 C63.816,68.052 65.145,67.408 66.557,68.646 C67.966,69.882 68.954,73.602 68.179,74.328 C67.404,75.051 63.571,74.405 62.497,73.516 C61.423,72.626 60.104,70.568 56.815,64.587 C50.621,53.326 40.826,34.642 34.898,28.062 C28.102,20.516 22.565,28.683 22.724,29.684 C22.795,30.136 28.913,40.415 34.898,51.6 C37.85,57.112 41.334,64.582 44.64,69.457 C46.81,72.658 49.164,73.72 50.322,75.95 C52.246,79.657 50.279,81.559 48.697,80.821 C47.571,80.296 45.544,79.725 41.392,72.705 C39.716,69.87 36.623,64.322 34.898,60.527 C30.297,50.41 22.797,33.273 18.664,32.931 C10.656,32.264 12.982,45.106 12.982,45.106 C12.982,45.106 19.904,44.226 22.724,49.977 C24.919,54.454 26.096,66.967 28.405,72.705 C32.413,82.666 36.693,85.237 34.898,86.503 C31.16,89.135 27.844,82.732 24.347,72.705 C20.972,63.028 21.245,54.204 18.664,51.6 C15.77,48.677 10.471,50.678 9.736,55.659 C8.758,62.29 11.064,81.086 21.912,106.797 C25.261,114.736 31.451,123.394 35.71,130.336 C45.524,146.32 53.567,157.121 53.567,157.121 C53.567,157.121 55.89,158.418 58.438,158.746 C61.565,159.145 65.028,158.657 64.932,159.557 C64.757,161.188 56.447,163.392 56.004,167.674 C55.561,171.956 57.829,173.721 61.686,176.603 C65.954,179.792 72.294,179.883 72.238,180.662 C72.129,182.14 66.057,184.418 60.061,183.096 C55.395,182.067 52.702,179.719 51.944,179.848 C50.393,180.115 37.639,211.652 60.061,230.986 C93.535,259.849 145.146,220.935 146.915,195.271 C149.08,163.822 118.813,151.788 117.693,152.253" id="Fill-27" fill="#FFFFFF"></path>
            <path d="M625.01,248.032 C619.149,219.661 593.917,203.612 593.353,205.823 C592.789,208.037 604.714,219 606.341,237.481 C607.68,252.7 598.224,266.702 598.224,266.702 C598.224,266.702 603.369,273.121 607.153,279.689 C611.078,286.51 613.646,293.488 613.646,293.488 C613.646,293.488 631.221,278.097 625.01,248.032" id="Fill-28" fill="#FFFFFF"></path>
            <path d="M636.373,282.937 C635.446,282.595 633.691,289.247 629.881,295.113 C625.752,301.462 620.387,307.137 620.14,308.91 C619.661,312.322 620.034,330.179 615.27,343.813 C610.087,358.643 597.411,369.789 597.411,369.789 C597.411,369.789 598.01,377.468 600.659,378.717 C603.307,379.965 635.642,367.951 647.737,337.32 C659.711,307.002 638.302,283.645 636.373,282.937" id="Fill-29" fill="#FFFFFF"></path>
            <path d="M659.913,344.626 C659.026,344.552 648.628,362.009 634.751,373.848 C621.033,385.548 605.293,389.938 604.716,391.706 C604.142,393.472 606.727,401.261 607.153,409.562 C607.536,417.047 603.927,421.929 606.341,423.361 C608.754,424.793 637.493,426.32 656.665,400.633 C680.29,368.986 660.8,344.7 659.913,344.626" id="Fill-30" fill="#FFFFFF"></path>
            <path d="M680.206,373.035 C679.199,374.978 678.956,401.769 652.608,420.927 C629.783,437.519 604.716,436.349 604.716,436.349 C604.716,436.349 604.104,440.223 603.094,443.654 C602.073,447.124 600.659,450.147 600.659,450.147 C600.659,450.147 615.06,472.449 638.808,469.628 C668.223,466.134 695.43,443.764 698.875,416.867 C702.913,385.356 681.212,371.093 680.206,373.035" id="Fill-31" fill="#FFFFFF"></path>
            <path d="M708.616,416.867 C708.356,419.173 710.563,437.372 687.511,459.078 C669.297,476.226 644.591,478.928 644.49,480.18 C644.389,481.432 654.933,499.526 673.711,499.663 C701.761,499.864 727.692,471.997 728.097,447.714 C728.464,425.668 708.875,414.564 708.616,416.867" id="Fill-32" fill="#FFFFFF"></path>
            <path d="M779.234,571.092 C778.38,569.286 772.874,561.159 770.305,554.857 C767.61,548.247 767.189,544.229 769.492,544.306 C771.006,544.356 771.286,548.598 772.74,550.801 C774.687,553.745 776.766,555.918 777.611,555.671 C778.455,555.42 774.843,536.718 762.188,521.579 C750.661,507.787 740.164,494.363 738.648,494.792 C737.134,495.221 735.892,497.895 734.59,499.663 C733.498,501.138 731.207,501.395 731.344,498.851 C731.385,498.069 732.457,494.168 732.155,489.921 C731.856,485.714 730.868,483.448 728.908,480.992 C728.4,480.356 723.783,488.484 716.732,494.792 C708.459,502.193 698.064,508.59 698.064,508.59 C698.064,508.59 703.205,514.219 708.616,515.084 C713.3,515.835 715.661,514.464 717.544,513.461 C719.761,512.279 720.267,513.027 719.98,514.272 C719.713,515.423 718.618,516.749 717.544,517.519 C715.534,518.963 712.179,519.22 711.862,519.954 C711.72,520.287 713.457,529.213 713.485,538.625 C713.519,549.986 711.051,554.201 711.862,562.164 C712.163,565.108 714.893,572.849 716.732,580.832 C717.632,584.732 717.544,589.03 718.355,592.196 C720.893,602.082 734.175,596.245 732.155,586.513 C731.039,581.139 727.151,573.375 728.097,568.656 C729.67,560.8 737.026,557.293 737.026,557.293 C737.026,557.293 737.354,554.928 740.272,554.046 C741.732,553.605 761.059,563.681 766.247,576.773 C771.768,590.704 768.083,598.28 770.305,601.938 C775.22,610.018 782.236,603.154 782.481,597.878 C782.669,593.827 782.174,577.311 779.234,571.092" id="Fill-33" fill="#FFFFFF"></path>
            <path d="M764.622,593.819 C764.255,590.653 764.146,586.68 763.811,586.513 C763.476,586.349 760.623,587.893 760.565,593.819 C760.508,599.747 766.104,600.647 766.247,600.313 C766.39,599.978 765.053,597.514 764.622,593.819" id="Fill-34" fill="#FFFFFF"></path>
            <path d="M760.565,576.773 C760.349,576.168 755.826,571.877 751.636,567.846 C746.41,562.814 742.054,557.929 741.083,558.104 C740.31,558.247 738.689,561.637 737.838,566.221 C736.766,571.984 736.817,579.37 740.272,581.643 C744.369,584.341 747.774,582.156 748.39,575.962 C748.767,572.15 749.391,570.803 750.013,570.28 C750.635,569.757 751.425,570.224 751.636,571.092 C751.752,571.572 749.397,579.186 750.013,585.702 C750.515,591.019 753.036,595.121 756.506,594.631 C760.217,594.108 759.396,589.729 759.754,586.513 C760.273,581.841 761.05,578.134 760.565,576.773" id="Fill-35" fill="#FFFFFF"></path>
            <path d="M472.409,127.088 C470.717,124.095 468.352,123.029 467.538,124.654 C466.725,126.276 469.342,127.263 469.161,127.899 C469.077,128.201 462.713,136.7 432.722,139.737 C410.056,141.952 394.772,136.441 392.861,136.828 C390.957,137.214 390.911,139.595 392.05,140.075 C393.188,140.557 403.296,142.24 405.037,143.322 C406.782,144.407 420.608,157.069 434.912,155.979 C451.749,154.697 459.112,140.072 460.913,138.254 C462.171,136.982 465.838,134.599 468.595,132.745 C470.446,131.495 471.373,131.07 471.597,131.147 C472.156,131.342 472.873,132.871 473.221,132.77 C473.569,132.669 474.178,130.219 472.409,127.088" id="Fill-36" fill="#010000"></path>
            <path d="M453.968,140.35 C453.241,140.289 445.181,143.016 434.258,144.134 C424.224,145.161 413.491,143.791 413.155,144.134 C412.987,144.304 416.25,148.383 421.803,150.149 C430.005,152.764 439.893,152.337 447.247,148.193 C452.473,145.247 454.303,140.378 453.968,140.35" id="Fill-37" fill="#FFFFFF"></path>
            <path d="M392.05,130.336 C389.981,130.935 388.013,132.323 386.368,135.207 C385.036,137.542 385.392,139.104 385.557,140.075 C385.768,141.321 386.853,141.943 387.18,140.888 C387.337,140.378 387.149,139.566 390.427,136.018 C392.3,133.988 392.745,134.113 393.673,133.582 C395.974,132.265 394.615,129.59 392.05,130.336" id="Fill-38" fill="#010000"></path>
            <path d="M399.355,64.587 C388.349,66.145 384.162,76.368 383.932,89.751 C383.723,101.87 389.257,110.61 394.484,111.665 C397.306,112.235 407.282,112.117 409.303,110.996 C416.207,107.171 418.792,98.192 418.837,87.314 C418.903,70.488 409.346,63.173 399.355,64.587" id="Fill-39" fill="#010000"></path>
            <path d="M392.059,74.05 C390.816,75.51 387.019,81.025 386.91,88.664 C386.715,102.594 393.226,108.034 393.562,107.873 C393.895,107.709 391.152,103.372 390.49,99.238 C389.897,95.547 390.696,91.88 390.696,91.88 C390.696,91.879 392.523,94.8 395.04,94.361 C396.572,94.094 399.869,92.314 398.636,86.266 C397.865,82.482 394.553,82.734 394.506,82.758 C394.506,82.758 396.546,79.557 400.055,78.429 C403.632,77.278 409.557,78.742 412.051,85.001 C416.388,95.883 410.731,105.749 411.021,106.125 C411.216,106.381 415.353,102.315 416.825,92.191 C419.433,70.419 402.443,61.846 392.059,74.05" id="Fill-40" fill="#FFFFFF"></path>
            <path d="M465.539,79.221 C462.293,65.865 454.564,58.416 443.908,60.543 C431.678,62.985 430.986,78.254 432.028,86.72 C433.169,95.99 439.131,107.037 444.733,108 C449.561,108.828 457.73,107.374 460.643,105.374 C466.149,101.598 467.615,87.801 465.539,79.221" id="Fill-41" fill="#010000"></path>
            <path d="M463.768,85.233 C462.309,64.64 443.34,58.75 436.319,71.545 C435.3,73.413 433.623,80.341 434.934,88.954 C436.518,99.35 443.896,104.881 444.255,104.659 C444.612,104.437 441.414,102.065 439.653,97.154 C437.989,92.522 438.248,87.409 438.248,87.409 C438.248,87.409 440.863,91.104 443.603,90.314 C445.263,89.837 447.49,87.752 446.316,82.496 C445.196,77.476 440.921,78.51 440.869,78.54 C440.869,78.54 441.946,76.012 446.203,74.349 C450.675,72.601 457.599,75.948 460.233,84.881 C463.459,95.856 459.114,101.595 459.422,101.927 C459.633,102.152 464.607,96.955 463.768,85.233" id="Fill-42" fill="#FFFFFF"></path>
            <path d="M648.549,1096.27 C648.549,1096.27 630.585,1102.06 594.978,1101.95 C567.849,1101.86 538.548,1098.86 528.417,1098.7 C517.977,1098.54 494,1099.9 474.031,1098.7 C454.659,1097.54 439.129,1093.83 439.129,1093.83 C439.129,1093.83 437.822,1100.93 459.422,1103.57 C477.228,1105.75 499.579,1103.61 521.924,1104.38 C544.267,1105.16 581.588,1111.27 624.198,1107.63 C654.362,1105.06 648.549,1096.27 648.549,1096.27" id="Fill-4" fill="#FFFFFF"></path>
            <path d="M239.449,1114.94 C237.17,1113.38 224.932,1131.1 203.734,1125.49 C186.576,1120.95 179.821,1089.82 176.947,1090.59 C174.074,1091.35 182.205,1129.33 206.979,1131.98 C228.662,1134.3 241.729,1116.49 239.449,1114.94" id="Fill-17" fill="#FFFFFF"></path>
        </g>
    </g>
</svg>