<?xml version="1.0" encoding="UTF-8"?>
<svg viewBox="0 0 230 40" version="1.1" xmlns="http://www.w3.org/2000/svg" xmlns:xlink="http://www.w3.org/1999/xlink">
    <!-- Generator: Sketch 52.6 (67491) - http://www.bohemiancoding.com/sketch -->
    <title>michelin-guide-logo-white</title>
    <desc>Created with Sketch.</desc>
    <defs>
        <polygon id="path-1" points="0 39.9155217 228.904783 39.9155217 228.904783 -0.000130434783 0 -0.000130434783"></polygon>
    </defs>
    <g id="michelin-guide-logo-white" stroke="none" stroke-width="1" fill="none" fill-rule="evenodd">
        <g id="Group-26">
            <path d="M179.509696,26.9239565 L179.509696,26.8935217 C179.509696,23.8743913 181.828391,21.3178696 185.092739,21.3178696 C186.979696,21.3178696 188.138826,21.8422174 189.25187,22.7817826 L188.046217,24.2135217 C187.211,23.5052609 186.39187,23.0583043 185.014913,23.0583043 C183.02013,23.0583043 181.504043,24.7991739 181.504043,26.8626522 L181.504043,26.8935217 C181.504043,29.110913 182.974043,30.7435217 185.185348,30.7435217 C186.206652,30.7435217 187.133609,30.420913 187.798826,29.9278696 L187.798826,27.9096087 L185.030565,27.9096087 L185.030565,26.2622174 L189.639261,26.2622174 L189.639261,30.7900435 C188.57187,31.6987391 187.040565,32.4687391 185.123174,32.4687391 C181.735783,32.4687391 179.509696,30.0665652 179.509696,26.9239565" id="Fill-1" fill="#FEFEFE"></path>
            <path d="M191.938391,27.7103043 L191.938391,21.502913 L193.841,21.502913 L193.841,27.6324783 C193.841,29.6346522 194.877087,30.6976957 196.577957,30.6976957 C198.264478,30.6976957 199.300565,29.6959565 199.300565,27.7103043 L199.300565,21.502913 L201.202304,21.502913 L201.202304,27.6168261 C201.202304,30.8359565 199.377522,32.452913 196.547087,32.452913 C193.732304,32.452913 191.938391,30.8359565 191.938391,27.7103043" id="Fill-3" fill="#FEFEFE"></path>
            <mask id="mask-2" fill="white">
                <use xlink:href="#path-1"></use>
            </mask>
            <g id="Clip-6"></g>
            <polygon id="Fill-5" fill="#FEFEFE" mask="url(#mask-2)" points="203.91913 32.2842174 205.821739 32.2842174 205.821739 21.502913 203.91913 21.502913"></polygon>
            <path d="M210.613652,23.2274348 L210.613652,30.5591739 L212.74887,30.5591739 C215.021478,30.5591739 216.506261,29.0343913 216.506261,26.9239565 L216.506261,26.8935217 C216.506261,24.7835217 215.021478,23.2274348 212.74887,23.2274348 L210.613652,23.2274348 Z M208.711913,21.5026522 L212.74887,21.5026522 C216.150174,21.5026522 218.501478,23.8283043 218.501478,26.8626522 L218.501478,26.8935217 C218.501478,29.9278696 216.150174,32.2839565 212.74887,32.2839565 L208.711913,32.2839565 L208.711913,21.5026522 Z" id="Fill-7" fill="#FEFEFE" mask="url(#mask-2)"></path>
            <polygon id="Fill-8" fill="#FEFEFE" mask="url(#mask-2)" points="220.801304 21.5027391 228.827391 21.5027391 228.827391 23.1966522 222.703043 23.1966522 222.703043 26.0001304 228.131739 26.0001304 228.131739 27.6944783 222.703043 27.6944783 222.703043 30.5896957 228.904783 30.5896957 228.904783 32.2840435 220.801304 32.2840435"></polygon>
            <path d="M29.2048696,22.2504783 C29.2118261,22.2504783 29.7361739,22.2878696 30.0496522,22.4091739 C30.5796522,22.6122174 31.640087,23.6265652 32.2131304,23.7143913 C32.314,23.7265652 32.5761739,23.6617826 32.2909565,23.460913 C32.2118261,23.4039565 31.5492174,22.8148261 31.7948696,22.5100435 C31.7974783,22.5048261 31.8005217,22.5026522 31.804,22.497 C31.8909565,22.3748261 32.0057391,22.3478696 32.1287826,22.3717826 C32.9587826,22.5774348 33.650087,22.697 33.887913,22.7304783 C34.034,22.750913 34.1405217,22.7548261 34.2005217,22.7048261 C34.2587826,22.6539565 34.2153043,22.6178696 34.0544348,22.5713478 C32.7735652,22.227 31.3626957,21.6761304 30.3705217,20.933087 C29.0422609,19.9135217 28.3335652,18.3074348 28.5431304,16.7087391 C28.6966087,15.5322174 29.3053043,14.4943913 30.2657391,13.7526522 C30.6474783,13.4717826 31.2557391,13.2617826 31.4309565,13.2000435 C31.8957391,13.0317826 31.134,12.9091739 31.077913,12.9000435 C30.8822609,12.8683043 30.8713913,12.667 31.0313913,12.0552609 C31.9183478,9.20830435 33.8809565,7.95134783 35.5092174,7.39917391 C35.7948696,7.31221739 36.2322609,7.18743478 36.5287826,7.14178261 C36.9774783,7.07352174 36.8109565,6.87091304 36.2957391,6.81091304 C36.2957391,6.81091304 36.1218261,6.80047826 36.2074783,6.68830435 C36.2222609,6.67091304 36.3192174,6.55786957 36.4631304,6.46482609 C36.8296522,6.23178261 37.3592174,6.0543913 37.9383478,6.03873913 C38.9848696,6.01091304 39.8870435,6.59482609 39.9931304,7.13482609 C39.9931304,7.13482609 40.0309565,7.24265217 39.9035652,7.247 C39.7031304,7.25395652 39.5409565,7.33873913 39.8183478,7.47613043 C39.8822609,7.50786957 40.1618261,7.59352174 40.5544348,7.77352174 C40.5726957,7.78482609 40.5918261,7.79526087 40.6113913,7.8043913 C41.4009565,8.17134783 43.8574783,9.66526087 43.6783478,13.8883043 L43.6783478,13.8878696 C43.6722609,14.0148261 43.6613913,14.1413478 43.6544348,14.2674348 C43.6466087,14.383087 43.6305217,14.500913 43.6161739,14.617 C43.3853043,14.5900435 43.2848696,14.6883043 43.450087,14.8535217 C43.5696522,14.9726522 43.8666087,15.327 44.0374783,15.6087391 C44.5913913,16.5226522 44.8653043,17.730913 44.7192174,18.8435217 C44.5226957,20.350913 43.590087,21.2691739 42.6570435,21.8191739 C42.2392174,22.0561304 41.2722609,22.5356957 40.0653043,22.8048261 C39.8192174,22.8604783 39.9344348,23.1817826 41.0770435,23.1652609 C41.1731304,23.1761304 41.3813913,23.1865652 41.4418261,23.2991739 C41.5748696,23.5452609 41.3457391,24.0265652 40.850087,24.3187391 C40.4218261,24.5717826 40.7644348,24.6239565 41.3592174,24.4461304 C41.5326957,24.4174348 41.9892174,24.6017826 42.0487826,24.627 C43.0148696,25.0543913 45.4474783,26.310913 47.2766087,28.7748261 C48.5418261,30.5917826 49.0013913,32.0252609 48.6061739,32.9217826 C48.2213913,33.7939565 47.0770435,33.9543913 47.0683478,33.9552609 C47.0622609,33.9565652 47.0557391,33.957 47.0492174,33.9583043 C42.6292174,34.6465652 34.9631304,33.4326522 29.6748696,31.877 C28.7283478,31.5996087 27.3153043,31.1022174 26.1270435,30.5756957 C27.2948696,28.0483043 26.840087,24.8500435 24.9248696,22.690913 C24.8992174,22.6622174 24.8731304,22.6348261 24.8470435,22.6061304 C26.730087,22.2878696 28.2983478,22.240913 29.2048696,22.2504783" id="Fill-9" fill="#FEFEFE" mask="url(#mask-2)"></path>
            <path d="M50.8344348,30.1206957 C51.684,31.3893913 51.9887826,32.912 51.6922609,34.4089565 C51.4431304,35.6706957 50.7735652,36.8037391 49.8113913,37.6311304 C49.8392174,36.585913 49.6544348,35.3646087 48.8826957,34.3985217 C49.1887826,34.1554783 49.4718261,33.8328696 49.664,33.4028696 C50.2487826,32.0950435 49.7648696,30.3115652 48.2253043,28.1028696 C48.2218261,28.0985217 48.2187826,28.0937391 48.2153043,28.0893913 C48.1822609,28.0454783 48.1487826,28.0024348 48.1157391,27.9585217 C49.2192174,28.3750435 50.1648696,29.1211304 50.8344348,30.1206957" id="Fill-10" fill="#FEFEFE" mask="url(#mask-2)"></path>
            <path d="M24.0552174,23.4622609 C25.82,25.4513913 26.1173913,28.4813913 24.7621739,30.6657391 C23.2421739,33.1166087 20.5165217,34.3287826 17.9791304,33.6822609 C17.61,33.5883478 17.263913,33.4592174 16.9443478,33.3026957 C17.186087,33.2657391 17.4243478,33.2170435 17.6569565,33.1531304 C20.1530435,32.4761739 22.0173913,30.174 22.2952174,27.4235652 C22.4704348,25.6870435 21.9791304,23.9474783 20.9469565,22.6509565 C20.5830435,22.1935652 20.1652174,21.8053043 19.6886957,21.480087 C21.3008696,21.4874783 22.9426087,22.2074783 24.0552174,23.4622609" id="Fill-11" fill="#FEFEFE" mask="url(#mask-2)"></path>
            <path d="M20.0376957,23.3747826 C20.8824783,24.436087 21.2837826,25.8691304 21.1385652,27.3069565 C20.9085652,29.5808696 19.3872609,31.48 17.3524783,32.0313043 C15.6394348,32.4965217 13.9933478,32.0921739 12.8681304,31.3465217 C15.3498696,31.2986957 17.735087,29.5934783 18.532913,27.1095652 C18.9333478,25.8626087 18.9068261,24.5078261 18.4581304,23.2956522 C18.2511739,22.736087 17.9568261,22.2186957 17.5920435,21.7586957 C18.6416087,22.0913043 19.4368261,22.6204348 20.0376957,23.3747826" id="Fill-12" fill="#FEFEFE" mask="url(#mask-2)"></path>
            <path d="M16.1552174,23.4456957 C16.2452174,22.9726522 16.283913,22.5004783 16.2752174,22.0374348 C17.4921739,23.2100435 17.9756522,25.0452609 17.4265217,26.7539565 C16.6695652,29.1096087 14.1608696,30.6043913 11.8343478,30.0852609 C10.8534783,29.8661304 9.7073913,29.2591739 9.01217391,28.3522174 C9.43391304,28.4426522 9.86043478,28.4891739 10.2878261,28.4891739 C11.0956522,28.4891739 11.9034783,28.3252609 12.6695652,27.9917826 C14.4595652,27.2135217 15.7626087,25.5139565 16.1552174,23.4456957" id="Fill-13" fill="#FEFEFE" mask="url(#mask-2)"></path>
            <path d="M14.4163043,19.57 C14.418913,19.5734783 14.4206522,19.5752174 14.421087,19.5726087 C15.0423913,20.6065217 15.2641304,21.9082609 15.0132609,23.2286957 C14.6923913,24.9191304 13.6432609,26.3008696 12.2063043,26.926087 C10.568913,27.6386957 8.68978261,27.3873913 7.17934783,26.2552174 C5.97934783,25.356087 5.24804348,24.0773913 5.10804348,22.7026087 C5.10891304,22.7030435 5.10804348,22.7 5.10543478,22.693913 C5.225,22.7986957 5.34804348,22.8969565 5.47456522,22.9873913 C6.38847826,23.6465217 7.50804348,23.9947826 8.71326087,23.9947826 C9.53369565,23.9947826 10.1358696,23.8326087 10.251087,23.7995652 C12.3763043,23.1986957 13.4184783,21.9226087 13.9180435,20.9573913 C14.1771739,20.4582609 14.3280435,19.9782609 14.4163043,19.57" id="Fill-14" fill="#FEFEFE" mask="url(#mask-2)"></path>
            <path d="M1.34013043,4.71395652 C1.35665217,4.70482609 1.37186957,4.69395652 1.38621739,4.68091304 C1.42708696,4.64352174 1.47491304,4.61656522 1.52708696,4.5996087 C1.5436087,4.59613043 1.56013043,4.5943913 1.57752174,4.59308696 C1.64056522,4.58917391 1.691,4.58656522 1.73143478,4.58482609 C1.76708696,4.59004348 1.8036087,4.59786957 1.83926087,4.61134783 C2.17404348,4.73308696 2.421,5.15873913 2.49969565,5.7496087 C2.72447826,7.44482609 3.52013043,8.57004348 3.55404348,8.61743478 C3.60317391,8.68613043 3.68056522,8.72265217 3.75882609,8.72265217 C3.81013043,8.72265217 3.86143478,8.70743478 3.90578261,8.67526087 C4.01926087,8.59395652 4.04491304,8.43656522 3.9636087,8.32352174 C3.95621739,8.31265217 3.20795652,7.25526087 2.99969565,5.68308696 C2.8936087,4.89091304 2.53404348,4.32743478 2.01230435,4.13743478 C1.88578261,4.09134783 1.75621739,4.07134783 1.62969565,4.07569565 C1.561,3.91830435 1.49926087,3.76482609 1.48056522,3.68395652 C1.42969565,3.46656522 1.33273913,3.03830435 1.81230435,2.87395652 C1.84230435,2.86395652 1.87273913,2.85569565 1.9036087,2.84830435 C1.91969565,2.84917391 1.93621739,2.84917391 1.95273913,2.847 C2.301,2.80352174 2.75795652,2.96265217 3.21665217,4.59526087 C3.6383913,6.09308696 4.59491304,7.55482609 4.63578261,7.61656522 C4.68404348,7.69004348 4.76447826,7.73004348 4.84621739,7.73004348 C4.89404348,7.73004348 4.94230435,7.71613043 4.98491304,7.68830435 C5.101,7.61178261 5.1336087,7.45526087 5.05665217,7.33873913 C5.04708696,7.3243913 4.10273913,5.88178261 3.70230435,4.45873913 C3.50447826,3.75526087 3.22752174,2.99004348 2.7536087,2.59917391 C2.68621739,2.42613043 2.61143478,2.23352174 2.59056522,2.17134783 C2.50969565,1.93047826 2.42621739,1.39656522 2.88491304,1.24352174 C2.97795652,1.21178261 3.06186957,1.19830435 3.1383913,1.19830435 C3.50273913,1.19830435 3.68926087,1.51221739 3.781,1.74656522 C3.79404348,1.7796087 3.80926087,1.81482609 3.82621739,1.85091304 L5.901,6.80613043 C5.91404348,6.84352174 5.93621739,6.87482609 5.96491304,6.89656522 C6.03143478,6.95178261 6.12013043,6.9696087 6.20447826,6.93786957 C6.32317391,6.88830435 6.38230435,6.75352174 6.33404348,6.63308696 L4.3183913,1.81786957 C4.35317391,1.72656522 4.42230435,1.64178261 4.54708696,1.57830435 C4.67317391,1.5143913 4.7836087,1.49004348 4.87882609,1.49004348 C5.18621739,1.49004348 5.33665217,1.74352174 5.33665217,1.74352174 C5.33665217,1.74352174 8.01621739,7.0043913 8.52534783,7.91221739 C8.32013043,8.25569565 8.15404348,8.59091304 8.13273913,8.67395652 C8.09621739,8.80830435 8.18795652,8.9296087 8.25186957,8.80308696 C8.40143478,8.58178261 8.61795652,8.31873913 8.80186957,8.10743478 C8.8036087,8.10569565 8.80534783,8.10352174 8.80795652,8.10047826 C8.80795652,8.10047826 8.8083913,8.0996087 8.80882609,8.0996087 C8.81665217,8.09265217 8.82230435,8.08221739 8.82665217,8.07047826 C8.95273913,7.84613043 9.34708696,6.79830435 9.50230435,6.4696087 C9.61317391,5.99004348 9.81882609,5.34352174 10.0840435,4.92091304 C10.3127391,4.55656522 10.6366522,4.43047826 10.911,4.43047826 C11.2144783,4.43047826 11.4579565,4.5843913 11.4453478,4.74091304 C11.4383913,4.81134783 10.7888261,8.87656522 10.7888261,8.87656522 C10.6188261,9.727 10.4662174,10.9426522 10.3844783,11.6478696 C10.3792609,11.820913 10.3579565,11.993087 10.327087,12.1591739 C10.3236087,12.1943913 10.3214348,12.213087 10.3214348,12.213087 C10.3214348,12.213087 10.3131739,12.2513478 10.2957826,12.3135217 C10.1601304,12.9243913 9.91795652,13.4078696 9.91795652,13.4078696 L10.1288261,14.3778696 C10.1301304,14.3774348 10.1314348,14.3761304 10.1327391,14.3756957 C10.2166522,14.7843913 10.3083913,15.2213478 10.3444783,15.3539565 C10.4983913,15.9039565 10.301,16.2256957 10.4005652,16.3352609 C10.5405652,16.4896087 10.8827391,15.7574348 10.9714348,15.3765652 C11.041,15.0743913 10.9257826,14.4578696 10.827087,14.0291739 C11.1205652,14.1656957 11.5583913,14.4148261 11.9692609,14.8265652 C12.6718696,15.5300435 12.8679565,16.0765652 13.001,16.5256957 C13.1336087,16.9752609 13.3575217,17.9439565 13.3723043,18.4652609 C13.387087,18.987 13.2083913,21.7583043 9.93056522,22.6822174 C9.93056522,22.6822174 9.42926087,22.8326522 8.71317391,22.8326522 C7.98273913,22.8326522 7.02795652,22.6761304 6.15186957,22.043087 C4.56621739,20.9165652 3.94795652,18.4504783 4.26230435,17.1478696 C4.41056522,16.5343913 4.67752174,16.0383043 4.88795652,15.7161304 C5.04186957,15.8091739 5.19621739,15.8813478 5.35273913,15.9322174 L5.44708696,16.3800435 C5.45752174,16.4335217 5.7136087,17.6856957 6.19795652,18.067 C6.48273913,18.2900435 6.95056522,18.307 7.08708696,18.307 C7.23186957,18.307 7.57447826,18.2913478 7.63578261,18.1422174 C7.64621739,18.1174348 7.66273913,18.0539565 7.5983913,17.9896087 C7.57317391,17.9635217 7.53143478,17.9404783 7.44708696,17.8943913 C7.21317391,17.7687391 6.7783913,17.5339565 6.68578261,17.1078696 C6.63404348,16.8674348 6.43491304,16.023087 6.31708696,15.5252609 C6.80447826,15.1383043 6.85665217,14.7113478 6.2183913,14.8456957 C5.83404348,14.9265652 5.47708696,14.7465652 5.2036087,14.5296087 C3.92491304,13.4100435 2.5836087,9.97308696 2.31752174,9.3643913 C1.22882609,6.60526087 1.00273913,5.12613043 1.34013043,4.71395652" id="Fill-15" fill="#FEFEFE" mask="url(#mask-2)"></path>
            <path d="M52.7599565,37.7302609 L51.3425652,37.7302609 C51.8016957,37.1841739 52.1760435,36.5689565 52.4482174,35.905913 C52.6621304,36.4993913 52.7660435,37.1146087 52.7599565,37.7302609" id="Fill-16" fill="#FEFEFE" mask="url(#mask-2)"></path>
            <path d="M18.6337826,34.9776087 C18.8742174,35.0036957 19.115087,35.0167391 19.3555217,35.0167391 C21.7403043,35.0167391 24.0672609,33.7580435 25.5463913,31.5893478 C26.805087,32.1567391 28.3024783,32.6858696 29.3472609,32.9919565 C32.2563913,33.8471739 35.5846522,34.5393478 38.7185652,34.9397826 C40.6911739,35.1915217 42.499,35.3180435 44.082913,35.3180435 C45.2616087,35.3180435 46.3155217,35.2480435 47.2211739,35.1076087 C47.2816087,35.098913 47.5194348,35.0623913 47.8298696,34.9580435 C48.5455217,35.7123913 48.6868261,36.8045652 48.6424783,37.7302174 L19.0185652,37.7302174 C18.732913,37.1684783 18.4833478,36.2802174 18.6337826,34.9776087" id="Fill-17" fill="#FEFEFE" mask="url(#mask-2)"></path>
            <path d="M164.48913,21.926087 L161.794783,29.2495652 C161.831739,28.5113043 161.977391,25.5991304 162.06913,23.9213043 C162.105652,23.23 161.956087,22.7030435 161.626522,22.3526087 C161.223043,21.9308696 160.693043,21.926087 160.686522,21.926087 L154.682174,21.926087 L150.757826,32.5969565 L155.117391,32.5969565 L157.901739,25.04 L157.572174,32.5969565 L164.883043,32.5969565 L168.811739,21.926087 L164.48913,21.926087 Z M147.680435,32.5952174 L151.606087,21.926087 L146.436087,21.926087 L142.510435,32.5952174 L147.680435,32.5952174 Z M141.843043,29.0517391 L136.780435,29.0517391 L139.40087,21.926087 L134.374783,21.926087 L130.441304,32.5969565 L140.538261,32.5969565 L141.843043,29.0517391 Z M130.476957,24.7213043 L131.513913,21.926087 L120.738696,21.926087 L116.811304,32.5969565 L127.707391,32.5969565 L128.765652,29.7178261 L122.749565,29.7178261 L123.189565,28.5313043 L128.804348,28.5313043 L129.767391,25.9052174 L124.153913,25.9052174 L124.582174,24.7213043 L130.476957,24.7213043 Z M113.888261,32.5969565 L117.822174,21.926087 L112.907391,21.926087 L111.482174,25.7691304 L108.882609,25.7691304 L110.298261,21.926087 L105.367826,21.926087 L101.45,32.5969565 L106.362174,32.5969565 L107.702609,28.9830435 L110.307826,28.9830435 L108.968696,32.5969565 L113.888261,32.5969565 Z M101.173478,25.8347826 L102.736522,22.086087 C100.046522,21.4226087 97.3443478,21.7382609 95.9421739,22.0247826 C92.8117391,22.6652174 88.57,24.966087 88.6147826,29.1621739 C88.6421739,31.5826087 91.5643478,32.9256522 94.9191304,32.8330435 C96.8,32.7821739 98.5904348,32.4365217 98.8169565,32.3978261 L100.062174,29.1665217 C98.4156522,29.4278261 96.8343478,29.8217391 95.5926087,29.3256522 C93.3565217,28.4313043 94.7330435,26.1056522 96.3134783,25.3817391 C97.0113043,25.0626087 97.956087,24.7604348 99.0978261,24.7852174 C99.57,24.7943478 100.725652,24.8143478 101.173478,25.8347826 Z M84.823913,32.5952174 L88.7495652,21.926087 L83.5834783,21.926087 L79.6526087,32.5952174 L84.823913,32.5952174 Z M76.6773913,32.5952174 L80.6034783,21.926087 L73.306087,21.926087 L69.5308696,27.6565217 C69.5308696,27.6565217 69.7708696,24.6582609 69.8317391,23.936087 C69.8752174,23.386087 69.8086957,21.926087 68.47,21.926087 L62.4808696,21.926087 L58.5530435,32.5952174 L63.2356522,32.5952174 L66.0813043,24.8778261 L65.4817391,32.5952174 L69.6443478,32.5952174 L74.7491304,25.0130435 L71.9621739,32.5952174 L76.6773913,32.5952174 Z" id="Fill-18" fill="#FEFEFE" mask="url(#mask-2)"></path>
            <polygon id="Fill-19" fill="#FFE500" mask="url(#mask-2)" points="13.0941304 37.7302609 12.2984783 39.9154783 145.080652 39.9154783 145.884565 37.7302609"></polygon>
            <path d="M1.34013043,4.71395652 C1.35665217,4.70482609 1.37186957,4.69395652 1.38621739,4.68091304 C1.42708696,4.64352174 1.47491304,4.61656522 1.52708696,4.5996087 C1.5436087,4.59613043 1.56013043,4.5943913 1.57752174,4.59308696 C1.64056522,4.58917391 1.691,4.58656522 1.73143478,4.58482609 C1.76708696,4.59004348 1.8036087,4.59786957 1.83926087,4.61134783 C2.17404348,4.73308696 2.421,5.15873913 2.49969565,5.7496087 C2.72447826,7.44482609 3.52013043,8.57004348 3.55404348,8.61743478 C3.60317391,8.68613043 3.68056522,8.72265217 3.75882609,8.72265217 C3.81013043,8.72265217 3.86143478,8.70743478 3.90578261,8.67526087 C4.01926087,8.59395652 4.04491304,8.43656522 3.9636087,8.32352174 C3.95621739,8.31265217 3.20795652,7.25526087 2.99969565,5.68308696 C2.8936087,4.89091304 2.53404348,4.32743478 2.01230435,4.13743478 C1.88578261,4.09134783 1.75621739,4.07134783 1.62969565,4.07569565 C1.561,3.91830435 1.49926087,3.76482609 1.48056522,3.68395652 C1.42969565,3.46656522 1.33273913,3.03830435 1.81230435,2.87395652 C1.84230435,2.86395652 1.87273913,2.85569565 1.9036087,2.84830435 C1.91969565,2.84917391 1.93621739,2.84917391 1.95273913,2.847 C2.301,2.80352174 2.75795652,2.96265217 3.21665217,4.59526087 C3.6383913,6.09308696 4.59491304,7.55482609 4.63578261,7.61656522 C4.68404348,7.69004348 4.76447826,7.73004348 4.84621739,7.73004348 C4.89404348,7.73004348 4.94230435,7.71613043 4.98491304,7.68830435 C5.101,7.61178261 5.1336087,7.45526087 5.05665217,7.33873913 C5.04708696,7.3243913 4.10273913,5.88178261 3.70230435,4.45873913 C3.50447826,3.75526087 3.22752174,2.99004348 2.7536087,2.59917391 C2.68621739,2.42613043 2.61143478,2.23352174 2.59056522,2.17134783 C2.50969565,1.93047826 2.42621739,1.39656522 2.88491304,1.24352174 C2.97795652,1.21178261 3.06186957,1.19830435 3.1383913,1.19830435 C3.50273913,1.19830435 3.68926087,1.51221739 3.781,1.74656522 C3.79404348,1.7796087 3.80926087,1.81482609 3.82621739,1.85091304 L5.901,6.80613043 C5.91404348,6.84352174 5.93621739,6.87482609 5.96491304,6.89656522 C6.03143478,6.95178261 6.12013043,6.9696087 6.20447826,6.93786957 C6.32317391,6.88830435 6.38230435,6.75352174 6.33404348,6.63308696 L4.3183913,1.81786957 C4.35317391,1.72656522 4.42230435,1.64178261 4.54708696,1.57830435 C4.67317391,1.5143913 4.7836087,1.49004348 4.87882609,1.49004348 C5.18621739,1.49004348 5.33665217,1.74352174 5.33665217,1.74352174 C5.33665217,1.74352174 8.01621739,7.0043913 8.52534783,7.91221739 C8.32013043,8.25569565 8.15404348,8.59091304 8.13273913,8.67395652 C8.09621739,8.80830435 8.18795652,8.9296087 8.25186957,8.80308696 C8.40143478,8.58178261 8.61795652,8.31873913 8.80186957,8.10743478 C8.8036087,8.10569565 8.80534783,8.10352174 8.80795652,8.10047826 C8.80795652,8.10047826 8.8083913,8.0996087 8.80882609,8.0996087 C8.81665217,8.09265217 8.82230435,8.08221739 8.82665217,8.07047826 C8.95273913,7.84613043 9.34708696,6.79830435 9.50230435,6.4696087 C9.61317391,5.99004348 9.81882609,5.34352174 10.0840435,4.92091304 C10.3127391,4.55656522 10.6366522,4.43047826 10.911,4.43047826 C11.2144783,4.43047826 11.4579565,4.5843913 11.4453478,4.74091304 C11.4383913,4.81134783 10.7888261,8.87656522 10.7888261,8.87656522 C10.6188261,9.727 10.4662174,10.9426522 10.3844783,11.6478696 C10.3792609,11.820913 10.3579565,11.993087 10.327087,12.1591739 C10.3236087,12.1943913 10.3214348,12.213087 10.3214348,12.213087 C10.3214348,12.213087 10.3131739,12.2513478 10.2957826,12.3135217 C10.1601304,12.9243913 9.91795652,13.4078696 9.91795652,13.4078696 L10.1288261,14.3778696 C10.1301304,14.3774348 10.1314348,14.3761304 10.1327391,14.3756957 C10.2166522,14.7843913 10.3083913,15.2213478 10.3444783,15.3539565 C10.4983913,15.9039565 10.301,16.2256957 10.4005652,16.3352609 C10.5405652,16.4896087 10.8827391,15.7574348 10.9714348,15.3765652 C11.041,15.0743913 10.9257826,14.4578696 10.827087,14.0291739 C11.1205652,14.1656957 11.5583913,14.4148261 11.9692609,14.8265652 C12.6718696,15.5300435 12.8679565,16.0765652 13.001,16.5256957 C13.1336087,16.9752609 13.3575217,17.9439565 13.3723043,18.4652609 C13.387087,18.987 13.2083913,21.7583043 9.93056522,22.6822174 C9.93056522,22.6822174 9.42926087,22.8326522 8.71317391,22.8326522 C7.98273913,22.8326522 7.02795652,22.6761304 6.15186957,22.043087 C4.56621739,20.9165652 3.94795652,18.4504783 4.26230435,17.1478696 C4.41056522,16.5343913 4.67752174,16.0383043 4.88795652,15.7161304 C5.04186957,15.8091739 5.19621739,15.8813478 5.35273913,15.9322174 L5.44708696,16.3800435 C5.45752174,16.4335217 5.7136087,17.6856957 6.19795652,18.067 C6.48273913,18.2900435 6.95056522,18.307 7.08708696,18.307 C7.23186957,18.307 7.57447826,18.2913478 7.63578261,18.1422174 C7.64621739,18.1174348 7.66273913,18.0539565 7.5983913,17.9896087 C7.57317391,17.9635217 7.53143478,17.9404783 7.44708696,17.8943913 C7.21317391,17.7687391 6.7783913,17.5339565 6.68578261,17.1078696 C6.63404348,16.8674348 6.43491304,16.023087 6.31708696,15.5252609 C6.80447826,15.1383043 6.85665217,14.7113478 6.2183913,14.8456957 C5.83404348,14.9265652 5.47708696,14.7465652 5.2036087,14.5296087 C3.92491304,13.4100435 2.5836087,9.97308696 2.31752174,9.3643913 C1.22882609,6.60526087 1.00273913,5.12613043 1.34013043,4.71395652 M14.4162174,19.5700435 C14.4188261,19.5735217 14.4205652,19.5752609 14.421,19.5726522 C15.0423043,20.6065652 15.2640435,21.9083043 15.0131739,23.2287391 C14.6923043,24.9191739 13.6431739,26.300913 12.2062174,26.9261304 C10.5692609,27.6387391 8.68969565,27.3874348 7.17926087,26.2552609 C5.97926087,25.3561304 5.24795652,24.0774348 5.1083913,22.7026522 C5.10882609,22.703087 5.10795652,22.7000435 5.10534783,22.6939565 C5.22491304,22.7987391 5.34795652,22.897 5.47447826,22.9874348 C6.3883913,23.6465652 7.5083913,23.9948261 8.71317391,23.9948261 C9.5336087,23.9948261 10.1357826,23.8326522 10.251,23.7991739 C12.3762174,23.1987391 13.4183913,21.9226522 13.9183913,20.9574348 C14.177087,20.4583043 14.3283913,19.9783043 14.4162174,19.5700435 M16.1553478,23.4456957 C16.244913,22.9726522 16.2840435,22.5004783 16.2753478,22.0374348 C17.4923043,23.2100435 17.9753478,25.0452609 17.4266522,26.7539565 C16.6692609,29.1096087 14.1605652,30.6043913 11.8344783,30.0852609 C10.8536087,29.8661304 9.70752174,29.2591739 9.01230435,28.3522174 C9.4336087,28.4426522 9.86056522,28.4891739 10.2879565,28.4891739 C11.0953478,28.4891739 11.9031739,28.3252609 12.6696957,27.9917826 C14.4592609,27.2135217 15.7623043,25.5139565 16.1553478,23.4456957 M20.0375217,23.3748261 C20.8823043,24.4361304 21.2840435,25.8691739 21.1388261,27.307 C20.9088261,29.580913 19.3875217,31.4800435 17.3527391,32.0313478 C15.6396957,32.4965652 13.9931739,32.0922174 12.8683913,31.3465652 C15.3496957,31.2987391 17.734913,29.5935217 18.5327391,27.1096087 C18.9336087,25.8626522 18.907087,24.5078696 18.4583913,23.2956957 C18.2514348,22.7361304 17.957087,22.2187391 17.5923043,21.7587391 C18.6414348,22.0913478 19.437087,22.6204783 20.0375217,23.3748261 M24.0553478,23.4622174 C25.8201304,25.4513478 26.1175217,28.4813478 24.7623043,30.6656957 C23.2423043,33.1165652 20.5162174,34.3287391 17.9792609,33.6822174 C17.6096957,33.5883043 17.2640435,33.4591739 16.9440435,33.3026522 C17.1857826,33.2656957 17.4244783,33.217 17.6566522,33.153087 C20.1531739,32.4765652 22.017087,30.1739565 22.294913,27.4235217 C22.4705652,25.687 21.9792609,23.9474348 20.947087,22.650913 C20.5827391,22.1935217 20.164913,21.8056957 19.6888261,21.4804783 C21.301,21.4874348 22.9427391,22.2074348 24.0553478,23.4622174 M29.204913,22.2504783 C29.2118696,22.2504783 29.7362174,22.2878696 30.0496957,22.4091739 C30.5796957,22.6122174 31.6401304,23.6265652 32.2131739,23.7143913 C32.3140435,23.7265652 32.5762174,23.6617826 32.291,23.460913 C32.2114348,23.4039565 31.5492609,22.8148261 31.7944783,22.5100435 C31.7975217,22.5048261 31.8005652,22.5026522 31.8040435,22.497 C31.891,22.3748261 32.0057826,22.3478696 32.1283913,22.3717826 C32.9588261,22.5774348 33.6501304,22.697 33.8879565,22.7304783 C34.0340435,22.750913 34.1405652,22.7548261 34.2005652,22.7048261 C34.2583913,22.6539565 34.2153478,22.6178696 34.0544783,22.5713478 C32.7736087,22.227 31.3627391,21.6761304 30.3705652,20.933087 C29.0423043,19.9135217 28.3331739,18.3074348 28.5427391,16.7087391 C28.6966522,15.5322174 29.3053478,14.4943913 30.2657826,13.7526522 C30.6475217,13.4717826 31.2557826,13.2617826 31.4305652,13.2000435 C31.8957826,13.0317826 31.1336087,12.9091739 31.0779565,12.9000435 C30.8823043,12.8683043 30.871,12.667 31.0314348,12.0552609 C31.9183913,9.20830435 33.881,7.95134783 35.5092609,7.39917391 C35.794913,7.31221739 36.2318696,7.18743478 36.5288261,7.14178261 C36.9775217,7.07352174 36.811,6.87091304 36.2957826,6.81091304 C36.2957826,6.81091304 36.1218696,6.80047826 36.2075217,6.68830435 C36.2223043,6.67091304 36.3192609,6.55786957 36.4631739,6.46482609 C36.8296957,6.23178261 37.3592609,6.0543913 37.9383913,6.03873913 C38.984913,6.01091304 39.887087,6.59482609 39.9931739,7.13482609 C39.9931739,7.13482609 40.031,7.24265217 39.9036087,7.247 C39.7027391,7.25395652 39.541,7.33873913 39.8183913,7.47613043 C39.8823043,7.50786957 40.1618696,7.59352174 40.5544783,7.77352174 C40.5727391,7.7843913 40.5918696,7.79526087 40.6114348,7.8043913 C41.401,8.17134783 43.8575217,9.66526087 43.6783913,13.8883043 L43.6779565,13.8878696 C43.6723043,14.0148261 43.661,14.1413478 43.6544783,14.2674348 C43.6466522,14.383087 43.6305652,14.500913 43.6162174,14.617 C43.3853478,14.5900435 43.284913,14.6883043 43.4501304,14.8535217 C43.5692609,14.9726522 43.8666522,15.327 44.0375217,15.6087391 C44.5914348,16.5226522 44.8653478,17.730913 44.7192609,18.8435217 C44.5227391,20.350913 43.5901304,21.2691739 42.657087,21.8191739 C42.2392609,22.0561304 41.2723043,22.5356957 40.064913,22.8048261 C39.8188261,22.8604783 39.9344783,23.1817826 41.077087,23.1652609 C41.1731739,23.1761304 41.3814348,23.1865652 41.4414348,23.2991739 C41.574913,23.5452609 41.3457826,24.0265652 40.8501304,24.3187391 C40.4218696,24.5717826 40.7644783,24.6239565 41.3588261,24.4461304 C41.5327391,24.4174348 41.9892609,24.6017826 42.0483913,24.627 C43.014913,25.0543913 45.4475217,26.310913 47.2766522,28.7748261 C48.5414348,30.5917826 49.0014348,32.0252609 48.6057826,32.9217826 C48.2214348,33.7939565 47.077087,33.9543913 47.0683913,33.9552609 C47.0623043,33.9565652 47.0557826,33.957 47.0492609,33.9583043 C42.6292609,34.6465652 34.9631739,33.4326522 29.6744783,31.877 C28.7283913,31.5996087 27.3153478,31.1022174 26.127087,30.5756957 C27.294913,28.0483043 26.8401304,24.8500435 24.924913,22.690913 C24.8992609,22.6622174 24.8727391,22.6348261 24.8466522,22.6061304 C26.7296957,22.2878696 28.2983913,22.240913 29.204913,22.2504783 M50.8344783,30.120913 C51.6840435,31.3896087 51.9888261,32.9117826 51.6923043,34.4091739 C51.4431739,35.6704783 50.7736087,36.8039565 49.8114348,37.6313478 C49.8392609,36.5861304 49.6544783,35.3643913 48.8827391,34.3983043 C49.1888261,34.1556957 49.4718696,33.833087 49.6640435,33.4026522 C50.2488261,32.0952609 49.764913,30.3117826 48.224913,28.103087 C48.2218696,28.0983043 48.2188261,28.0935217 48.2153478,28.0896087 C48.1823043,28.0452609 48.1488261,28.0022174 48.1157826,27.9587391 C49.2192609,28.3752609 50.164913,29.1213478 50.8344783,30.120913 M1.25317391,9.78395652 C1.2583913,9.797 1.2636087,9.81004348 1.26926087,9.82265217 C1.29578261,9.88395652 1.33404348,9.97482609 1.38230435,10.0900435 C1.6536087,10.7387391 2.2183913,12.0887391 2.89708696,13.2974348 C3.27926087,13.9787391 3.64621739,14.5226522 4.0083913,14.9404783 C3.72795652,15.3435217 3.34013043,16.0148261 3.13273913,16.8748261 C2.91752174,17.7652609 3.01317391,18.9174348 3.39447826,20.0361304 C3.55273913,20.5022174 3.75491304,20.9391739 3.99317391,21.3383043 L3.98665217,21.3435217 C3.98882609,21.3478696 3.991,21.3517826 3.99317391,21.3556957 C3.98186957,21.3904783 3.97317391,21.4265652 3.9683913,21.4643913 C3.69056522,23.6583043 4.63056522,25.797 6.48230435,27.1852609 C6.7783913,27.407 7.08708696,27.600913 7.40447826,27.767 C7.6736087,28.5996087 8.23491304,29.3704783 9.03534783,30.0026522 C9.57621739,30.4296087 10.207087,30.7756957 10.8614348,31.0096087 C10.8657826,31.0161304 10.8692609,31.0226522 10.8736087,31.0287391 C11.5696957,32.0187391 12.6396957,32.7400435 13.967087,33.1148261 C14.3005652,33.2087391 14.641,33.277 14.9840435,33.3213478 C14.9996957,33.3422174 15.017087,33.3613478 15.0357826,33.3800435 C15.6801304,34.0039565 16.5253478,34.4761304 17.4905652,34.7539565 C17.3292609,36.0252609 17.484913,37.000913 17.7496957,37.7304783 L19.0188261,37.7304783 C18.7327391,37.1687391 18.4836087,36.2804783 18.6336087,34.9774348 C18.8744783,35.0035217 19.114913,35.0165652 19.3553478,35.0165652 C21.7401304,35.0165652 24.067087,33.7583043 25.5466522,31.5891739 C26.8053478,32.1565652 28.3023043,32.6856957 29.3475217,32.9917826 C32.2562174,33.8474348 35.5844783,34.5396087 38.7188261,34.9400435 C40.691,35.1917826 42.4992609,35.3183043 44.0831739,35.3183043 C45.2614348,35.3183043 46.3157826,35.2483043 47.2214348,35.1074348 C47.2818696,35.0991739 47.5192609,35.0626522 47.8296957,34.9583043 C48.5457826,35.7126522 48.6866522,36.8048261 48.6423043,37.7304783 L51.3427391,37.7304783 C51.8018696,37.1843913 52.1757826,36.5691739 52.4479565,35.9056957 C52.6623043,36.4991739 52.7657826,37.1143913 52.7601304,37.7304783 L53.9112107,37.7304783 C53.9205652,36.5417826 53.6044783,35.3556957 52.957087,34.2935217 C52.9405652,34.2656957 52.921,34.2404783 52.9005652,34.2165652 C53.1266522,32.5517826 52.7436087,30.8826522 51.8005652,29.4739565 C50.7783913,27.9478696 49.2231739,26.9113478 47.421,26.5543913 C47.2388261,26.5187391 47.0514348,26.4896087 46.8636087,26.4678696 C46.8383913,26.4648261 46.8136087,26.4639565 46.7888261,26.4643913 C44.9488261,24.6765652 43.0018696,23.7626522 42.3123043,23.4748261 C42.334913,23.3787391 42.3540435,23.2839565 42.374913,23.1961304 C42.3996957,23.1891739 42.4244783,23.1813478 42.4488261,23.170913 C44.4101304,22.3178696 45.577087,20.8713478 45.8227391,18.9883043 C46.0183913,17.4991739 45.6062174,15.8496087 44.7662174,14.6987391 C44.7705652,14.6787391 44.7736087,14.6591739 44.7757826,14.6383043 C44.9762174,12.6252609 44.6731739,10.8691739 43.8740435,9.41917391 C43.2231739,8.23743478 42.2362174,7.29526087 41.0953478,6.7643913 C41.0896957,6.76221739 41.0844783,6.76047826 41.0792609,6.75786957 C40.7596957,5.67873913 39.3814348,4.85221739 37.9079565,4.89221739 C36.7462174,4.92352174 35.4783913,5.46830435 35.0014348,6.36221739 C33.2327391,6.99917391 30.4883913,8.64743478 29.6583913,12.8152609 C28.4357826,13.7339565 27.6331739,15.0839565 27.4392609,16.5643913 C27.2240435,18.2074348 27.7801304,19.8522174 28.9001304,21.0843913 C27.7662174,21.0887391 25.947087,21.1826522 23.8040435,21.6183043 C23.7823043,21.623087 23.761,21.6283043 23.7405652,21.6352609 C22.0883913,20.4691739 19.9588261,20.0235217 18.0553478,20.5217826 C17.9788261,20.5422174 17.9096957,20.5765652 17.8505652,20.6217826 C17.3218696,20.4622174 16.744913,20.3439565 16.1096957,20.2665652 C16.0705652,20.2617826 16.0318696,20.2613478 15.9940435,20.2643913 C15.7175217,19.3713478 15.2427391,18.5622174 14.5896957,17.9091739 C14.5566522,17.8756957 14.481,17.8165652 14.4805652,17.8126522 L14.4740435,17.8191739 C14.3775217,17.1665652 14.1918696,16.4543913 14.1153478,16.1956957 C13.9262174,15.557 13.634913,14.8496087 12.7914348,14.0048261 C12.2544783,13.467 11.6818696,13.1422174 11.2888261,12.9622174 C11.3688261,12.7483043 11.4153478,12.5661304 11.4388261,12.4587391 C11.4483913,12.4165652 11.454913,12.3739565 11.4592609,12.330913 C11.4614348,12.310913 11.6714348,10.2965652 11.9105652,9.10134783 C11.9136087,9.08656522 11.9166522,9.07178261 11.9188261,9.057 C12.5731739,4.95830435 12.5796957,4.89873913 12.5836087,4.85482609 C12.5844783,4.847 12.5853478,4.83830435 12.5862174,4.83047826 C12.614913,4.46178261 12.4875217,4.10352174 12.2275217,3.82178261 C11.9123043,3.48134783 11.4327391,3.28656522 10.911,3.28656522 C10.1788261,3.28656522 9.52447826,3.66047826 9.11491304,4.31308696 C8.87534783,4.69569565 8.69578261,5.15656522 8.57186957,5.54395652 C7.88926087,4.22526087 6.99882609,2.48569565 6.35621739,1.2243913 C6.34491304,1.20221739 6.33273913,1.18047826 6.32056522,1.15873913 C6.09752174,0.783956522 5.58621739,0.346130435 4.87926087,0.345695652 C4.66708696,0.345695652 4.45534783,0.384826087 4.24752174,0.462652174 C3.93708696,0.199173913 3.55578261,0.0543913043 3.1383913,0.0543913043 C2.93491304,0.0543913043 2.72708696,0.0896086957 2.52056522,0.15873913 C1.79752174,0.400913043 1.37708696,1.04613043 1.38186957,1.81308696 C0.817086957,2.02656522 0.43273913,2.47308696 0.324043478,3.04526087 C0.248826087,3.43917391 0.327956522,3.78004348 0.366217391,3.94352174 C0.371869565,3.96786957 0.380130435,4.0043913 0.397956522,4.06221739 C0.380130435,4.087 0.36273913,4.11221739 0.346217391,4.13873913 C-0.056826087,4.77134783 -0.264217391,5.937 1.25317391,9.78395652" id="Fill-20" fill="#231F20" mask="url(#mask-2)"></path>
            <path d="M1.34013043,4.71395652 C1.35665217,4.70482609 1.37186957,4.69395652 1.38621739,4.68091304 C1.42708696,4.64352174 1.47491304,4.61656522 1.52708696,4.5996087 C1.5436087,4.59613043 1.56013043,4.5943913 1.57752174,4.59308696 C1.64056522,4.58917391 1.691,4.58656522 1.73143478,4.58482609 C1.76708696,4.59004348 1.8036087,4.59786957 1.83926087,4.61134783 C2.17404348,4.73308696 2.421,5.15873913 2.49969565,5.7496087 C2.72447826,7.44482609 3.52013043,8.57004348 3.55404348,8.61743478 C3.60317391,8.68613043 3.68056522,8.72265217 3.75882609,8.72265217 C3.81013043,8.72265217 3.86143478,8.70743478 3.90578261,8.67526087 C4.01926087,8.59395652 4.04491304,8.43656522 3.9636087,8.32352174 C3.95621739,8.31265217 3.20795652,7.25526087 2.99969565,5.68308696 C2.8936087,4.89091304 2.53404348,4.32743478 2.01230435,4.13743478 C1.88578261,4.09134783 1.75621739,4.07134783 1.62969565,4.07569565 C1.561,3.91830435 1.49926087,3.76482609 1.48056522,3.68395652 C1.42969565,3.46656522 1.33273913,3.03830435 1.81230435,2.87395652 C1.84230435,2.86395652 1.87273913,2.85569565 1.9036087,2.84830435 C1.91969565,2.84917391 1.93621739,2.84917391 1.95273913,2.847 C2.301,2.80352174 2.75795652,2.96265217 3.21665217,4.59526087 C3.6383913,6.09308696 4.59491304,7.55482609 4.63578261,7.61656522 C4.68404348,7.69004348 4.76447826,7.73004348 4.84621739,7.73004348 C4.89404348,7.73004348 4.94230435,7.71613043 4.98491304,7.68830435 C5.101,7.61178261 5.1336087,7.45526087 5.05665217,7.33873913 C5.04708696,7.3243913 4.10273913,5.88178261 3.70230435,4.45873913 C3.50447826,3.75526087 3.22752174,2.99004348 2.7536087,2.59917391 C2.68621739,2.42613043 2.61143478,2.23352174 2.59056522,2.17134783 C2.50969565,1.93047826 2.42621739,1.39656522 2.88491304,1.24352174 C2.97795652,1.21178261 3.06186957,1.19830435 3.1383913,1.19830435 C3.50273913,1.19830435 3.68926087,1.51221739 3.781,1.74656522 C3.79404348,1.7796087 3.80926087,1.81482609 3.82621739,1.85091304 L5.901,6.80613043 C5.91404348,6.84352174 5.93621739,6.87482609 5.96491304,6.89656522 C6.03143478,6.95178261 6.12013043,6.9696087 6.20447826,6.93786957 C6.32317391,6.88830435 6.38230435,6.75352174 6.33404348,6.63308696 L4.3183913,1.81786957 C4.35317391,1.72656522 4.42230435,1.64178261 4.54708696,1.57830435 C4.67317391,1.5143913 4.7836087,1.49004348 4.87882609,1.49004348 C5.18621739,1.49004348 5.33665217,1.74352174 5.33665217,1.74352174 C5.33665217,1.74352174 8.01621739,7.0043913 8.52534783,7.91221739 C8.32013043,8.25569565 8.15404348,8.59091304 8.13273913,8.67395652 C8.09621739,8.80830435 8.18795652,8.9296087 8.25186957,8.80308696 C8.40143478,8.58178261 8.61795652,8.31873913 8.80186957,8.10743478 C8.8036087,8.10569565 8.80534783,8.10352174 8.80795652,8.10047826 C8.80795652,8.10047826 8.8083913,8.0996087 8.80882609,8.0996087 C8.81665217,8.09265217 8.82230435,8.08221739 8.82665217,8.07047826 C8.95273913,7.84613043 9.34708696,6.79830435 9.50230435,6.4696087 C9.61317391,5.99004348 9.81882609,5.34352174 10.0840435,4.92091304 C10.3127391,4.55656522 10.6366522,4.43047826 10.911,4.43047826 C11.2144783,4.43047826 11.4579565,4.5843913 11.4453478,4.74091304 C11.4383913,4.81134783 10.7888261,8.87656522 10.7888261,8.87656522 C10.6188261,9.727 10.4662174,10.9426522 10.3844783,11.6478696 C10.3792609,11.820913 10.3579565,11.993087 10.327087,12.1591739 C10.3236087,12.1943913 10.3214348,12.213087 10.3214348,12.213087 C10.3214348,12.213087 10.3131739,12.2513478 10.2957826,12.3135217 C10.1601304,12.9243913 9.91795652,13.4078696 9.91795652,13.4078696 L10.1288261,14.3778696 C10.1301304,14.3774348 10.1314348,14.3761304 10.1327391,14.3756957 C10.2166522,14.7843913 10.3083913,15.2213478 10.3444783,15.3539565 C10.4983913,15.9039565 10.301,16.2256957 10.4005652,16.3352609 C10.5405652,16.4896087 10.8827391,15.7574348 10.9714348,15.3765652 C11.041,15.0743913 10.9257826,14.4578696 10.827087,14.0291739 C11.1205652,14.1656957 11.5583913,14.4148261 11.9692609,14.8265652 C12.6718696,15.5300435 12.8679565,16.0765652 13.001,16.5256957 C13.1336087,16.9752609 13.3575217,17.9439565 13.3723043,18.4652609 C13.387087,18.987 13.2083913,21.7583043 9.93056522,22.6822174 C9.93056522,22.6822174 9.42926087,22.8326522 8.71317391,22.8326522 C7.98273913,22.8326522 7.02795652,22.6761304 6.15186957,22.043087 C4.56621739,20.9165652 3.94795652,18.4504783 4.26230435,17.1478696 C4.41056522,16.5343913 4.67752174,16.0383043 4.88795652,15.7161304 C5.04186957,15.8091739 5.19621739,15.8813478 5.35273913,15.9322174 L5.44708696,16.3800435 C5.45752174,16.4335217 5.7136087,17.6856957 6.19795652,18.067 C6.48273913,18.2900435 6.95056522,18.307 7.08708696,18.307 C7.23186957,18.307 7.57447826,18.2913478 7.63578261,18.1422174 C7.64621739,18.1174348 7.66273913,18.0539565 7.5983913,17.9896087 C7.57317391,17.9635217 7.53143478,17.9404783 7.44708696,17.8943913 C7.21317391,17.7687391 6.7783913,17.5339565 6.68578261,17.1078696 C6.63404348,16.8674348 6.43491304,16.023087 6.31708696,15.5252609 C6.80447826,15.1383043 6.85665217,14.7113478 6.2183913,14.8456957 C5.83404348,14.9265652 5.47708696,14.7465652 5.2036087,14.5296087 C3.92491304,13.4100435 2.5836087,9.97308696 2.31752174,9.3643913 C1.22882609,6.60526087 1.00273913,5.12613043 1.34013043,4.71395652 Z M14.4162174,19.5700435 C14.4188261,19.5735217 14.4205652,19.5752609 14.421,19.5726522 C15.0423043,20.6065652 15.2640435,21.9083043 15.0131739,23.2287391 C14.6923043,24.9191739 13.6431739,26.300913 12.2062174,26.9261304 C10.5692609,27.6387391 8.68969565,27.3874348 7.17926087,26.2552609 C5.97926087,25.3561304 5.24795652,24.0774348 5.1083913,22.7026522 C5.10882609,22.703087 5.10795652,22.7000435 5.10534783,22.6939565 C5.22491304,22.7987391 5.34795652,22.897 5.47447826,22.9874348 C6.3883913,23.6465652 7.5083913,23.9948261 8.71317391,23.9948261 C9.5336087,23.9948261 10.1357826,23.8326522 10.251,23.7991739 C12.3762174,23.1987391 13.4183913,21.9226522 13.9183913,20.9574348 C14.177087,20.4583043 14.3283913,19.9783043 14.4162174,19.5700435 Z M16.1553478,23.4456957 C16.244913,22.9726522 16.2840435,22.5004783 16.2753478,22.0374348 C17.4923043,23.2100435 17.9753478,25.0452609 17.4266522,26.7539565 C16.6692609,29.1096087 14.1605652,30.6043913 11.8344783,30.0852609 C10.8536087,29.8661304 9.70752174,29.2591739 9.01230435,28.3522174 C9.4336087,28.4426522 9.86056522,28.4891739 10.2879565,28.4891739 C11.0953478,28.4891739 11.9031739,28.3252609 12.6696957,27.9917826 C14.4592609,27.2135217 15.7623043,25.5139565 16.1553478,23.4456957 Z M20.0375217,23.3748261 C20.8823043,24.4361304 21.2840435,25.8691739 21.1388261,27.307 C20.9088261,29.580913 19.3875217,31.4800435 17.3527391,32.0313478 C15.6396957,32.4965652 13.9931739,32.0922174 12.8683913,31.3465652 C15.3496957,31.2987391 17.734913,29.5935217 18.5327391,27.1096087 C18.9336087,25.8626522 18.907087,24.5078696 18.4583913,23.2956957 C18.2514348,22.7361304 17.957087,22.2187391 17.5923043,21.7587391 C18.6414348,22.0913478 19.437087,22.6204783 20.0375217,23.3748261 Z M24.0553478,23.4622174 C25.8201304,25.4513478 26.1175217,28.4813478 24.7623043,30.6656957 C23.2423043,33.1165652 20.5162174,34.3287391 17.9792609,33.6822174 C17.6096957,33.5883043 17.2640435,33.4591739 16.9440435,33.3026522 C17.1857826,33.2656957 17.4244783,33.217 17.6566522,33.153087 C20.1531739,32.4765652 22.017087,30.1739565 22.294913,27.4235217 C22.4705652,25.687 21.9792609,23.9474348 20.947087,22.650913 C20.5827391,22.1935217 20.164913,21.8056957 19.6888261,21.4804783 C21.301,21.4874348 22.9427391,22.2074348 24.0553478,23.4622174 Z M29.204913,22.2504783 C29.2118696,22.2504783 29.7362174,22.2878696 30.0496957,22.4091739 C30.5796957,22.6122174 31.6401304,23.6265652 32.2131739,23.7143913 C32.3140435,23.7265652 32.5762174,23.6617826 32.291,23.460913 C32.2114348,23.4039565 31.5492609,22.8148261 31.7944783,22.5100435 C31.7975217,22.5048261 31.8005652,22.5026522 31.8040435,22.497 C31.891,22.3748261 32.0057826,22.3478696 32.1283913,22.3717826 C32.9588261,22.5774348 33.6501304,22.697 33.8879565,22.7304783 C34.0340435,22.750913 34.1405652,22.7548261 34.2005652,22.7048261 C34.2583913,22.6539565 34.2153478,22.6178696 34.0544783,22.5713478 C32.7736087,22.227 31.3627391,21.6761304 30.3705652,20.933087 C29.0423043,19.9135217 28.3331739,18.3074348 28.5427391,16.7087391 C28.6966522,15.5322174 29.3053478,14.4943913 30.2657826,13.7526522 C30.6475217,13.4717826 31.2557826,13.2617826 31.4305652,13.2000435 C31.8957826,13.0317826 31.1336087,12.9091739 31.0779565,12.9000435 C30.8823043,12.8683043 30.871,12.667 31.0314348,12.0552609 C31.9183913,9.20830435 33.881,7.95134783 35.5092609,7.39917391 C35.794913,7.31221739 36.2318696,7.18743478 36.5288261,7.14178261 C36.9775217,7.07352174 36.811,6.87091304 36.2957826,6.81091304 C36.2957826,6.81091304 36.1218696,6.80047826 36.2075217,6.68830435 C36.2223043,6.67091304 36.3192609,6.55786957 36.4631739,6.46482609 C36.8296957,6.23178261 37.3592609,6.0543913 37.9383913,6.03873913 C38.984913,6.01091304 39.887087,6.59482609 39.9931739,7.13482609 C39.9931739,7.13482609 40.031,7.24265217 39.9036087,7.247 C39.7027391,7.25395652 39.541,7.33873913 39.8183913,7.47613043 C39.8823043,7.50786957 40.1618696,7.59352174 40.5544783,7.77352174 C40.5727391,7.7843913 40.5918696,7.79526087 40.6114348,7.8043913 C41.401,8.17134783 43.8575217,9.66526087 43.6783913,13.8883043 L43.6779565,13.8878696 C43.6723043,14.0148261 43.661,14.1413478 43.6544783,14.2674348 C43.6466522,14.383087 43.6305652,14.500913 43.6162174,14.617 C43.3853478,14.5900435 43.284913,14.6883043 43.4501304,14.8535217 C43.5692609,14.9726522 43.8666522,15.327 44.0375217,15.6087391 C44.5914348,16.5226522 44.8653478,17.730913 44.7192609,18.8435217 C44.5227391,20.350913 43.5901304,21.2691739 42.657087,21.8191739 C42.2392609,22.0561304 41.2723043,22.5356957 40.064913,22.8048261 C39.8188261,22.8604783 39.9344783,23.1817826 41.077087,23.1652609 C41.1731739,23.1761304 41.3814348,23.1865652 41.4414348,23.2991739 C41.574913,23.5452609 41.3457826,24.0265652 40.8501304,24.3187391 C40.4218696,24.5717826 40.7644783,24.6239565 41.3588261,24.4461304 C41.5327391,24.4174348 41.9892609,24.6017826 42.0483913,24.627 C43.014913,25.0543913 45.4475217,26.310913 47.2766522,28.7748261 C48.5414348,30.5917826 49.0014348,32.0252609 48.6057826,32.9217826 C48.2214348,33.7939565 47.077087,33.9543913 47.0683913,33.9552609 C47.0623043,33.9565652 47.0557826,33.957 47.0492609,33.9583043 C42.6292609,34.6465652 34.9631739,33.4326522 29.6744783,31.877 C28.7283913,31.5996087 27.3153478,31.1022174 26.127087,30.5756957 C27.294913,28.0483043 26.8401304,24.8500435 24.924913,22.690913 C24.8992609,22.6622174 24.8727391,22.6348261 24.8466522,22.6061304 C26.7296957,22.2878696 28.2983913,22.240913 29.204913,22.2504783 Z M50.8344783,30.120913 C51.6840435,31.3896087 51.9888261,32.9117826 51.6923043,34.4091739 C51.4431739,35.6704783 50.7736087,36.8039565 49.8114348,37.6313478 C49.8392609,36.5861304 49.6544783,35.3643913 48.8827391,34.3983043 C49.1888261,34.1556957 49.4718696,33.833087 49.6640435,33.4026522 C50.2488261,32.0952609 49.764913,30.3117826 48.224913,28.103087 C48.2218696,28.0983043 48.2188261,28.0935217 48.2153478,28.0896087 C48.1823043,28.0452609 48.1488261,28.0022174 48.1157826,27.9587391 C49.2192609,28.3752609 50.164913,29.1213478 50.8344783,30.120913 Z M1.25317391,9.78395652 C1.2583913,9.797 1.2636087,9.81004348 1.26926087,9.82265217 C1.29578261,9.88395652 1.33404348,9.97482609 1.38230435,10.0900435 C1.6536087,10.7387391 2.2183913,12.0887391 2.89708696,13.2974348 C3.27926087,13.9787391 3.64621739,14.5226522 4.0083913,14.9404783 C3.72795652,15.3435217 3.34013043,16.0148261 3.13273913,16.8748261 C2.91752174,17.7652609 3.01317391,18.9174348 3.39447826,20.0361304 C3.55273913,20.5022174 3.75491304,20.9391739 3.99317391,21.3383043 L3.98665217,21.3435217 C3.98882609,21.3478696 3.991,21.3517826 3.99317391,21.3556957 C3.98186957,21.3904783 3.97317391,21.4265652 3.9683913,21.4643913 C3.69056522,23.6583043 4.63056522,25.797 6.48230435,27.1852609 C6.7783913,27.407 7.08708696,27.600913 7.40447826,27.767 C7.6736087,28.5996087 8.23491304,29.3704783 9.03534783,30.0026522 C9.57621739,30.4296087 10.207087,30.7756957 10.8614348,31.0096087 C10.8657826,31.0161304 10.8692609,31.0226522 10.8736087,31.0287391 C11.5696957,32.0187391 12.6396957,32.7400435 13.967087,33.1148261 C14.3005652,33.2087391 14.641,33.277 14.9840435,33.3213478 C14.9996957,33.3422174 15.017087,33.3613478 15.0357826,33.3800435 C15.6801304,34.0039565 16.5253478,34.4761304 17.4905652,34.7539565 C17.3292609,36.0252609 17.484913,37.000913 17.7496957,37.7304783 L19.0188261,37.7304783 C18.7327391,37.1687391 18.4836087,36.2804783 18.6336087,34.9774348 C18.8744783,35.0035217 19.114913,35.0165652 19.3553478,35.0165652 C21.7401304,35.0165652 24.067087,33.7583043 25.5466522,31.5891739 C26.8053478,32.1565652 28.3023043,32.6856957 29.3475217,32.9917826 C32.2562174,33.8474348 35.5844783,34.5396087 38.7188261,34.9400435 C40.691,35.1917826 42.4992609,35.3183043 44.0831739,35.3183043 C45.2614348,35.3183043 46.3157826,35.2483043 47.2214348,35.1074348 C47.2818696,35.0991739 47.5192609,35.0626522 47.8296957,34.9583043 C48.5457826,35.7126522 48.6866522,36.8048261 48.6423043,37.7304783 L51.3427391,37.7304783 C51.8018696,37.1843913 52.1757826,36.5691739 52.4479565,35.9056957 C52.6623043,36.4991739 52.7657826,37.1143913 52.7601304,37.7304783 L53.9112107,37.7304783 C53.9205652,36.5417826 53.6044783,35.3556957 52.957087,34.2935217 C52.9405652,34.2656957 52.921,34.2404783 52.9005652,34.2165652 C53.1266522,32.5517826 52.7436087,30.8826522 51.8005652,29.4739565 C50.7783913,27.9478696 49.2231739,26.9113478 47.421,26.5543913 C47.2388261,26.5187391 47.0514348,26.4896087 46.8636087,26.4678696 C46.8383913,26.4648261 46.8136087,26.4639565 46.7888261,26.4643913 C44.9488261,24.6765652 43.0018696,23.7626522 42.3123043,23.4748261 C42.334913,23.3787391 42.3540435,23.2839565 42.374913,23.1961304 C42.3996957,23.1891739 42.4244783,23.1813478 42.4488261,23.170913 C44.4101304,22.3178696 45.577087,20.8713478 45.8227391,18.9883043 C46.0183913,17.4991739 45.6062174,15.8496087 44.7662174,14.6987391 C44.7705652,14.6787391 44.7736087,14.6591739 44.7757826,14.6383043 C44.9762174,12.6252609 44.6731739,10.8691739 43.8740435,9.41917391 C43.2231739,8.23743478 42.2362174,7.29526087 41.0953478,6.7643913 C41.0896957,6.76221739 41.0844783,6.76047826 41.0792609,6.75786957 C40.7596957,5.67873913 39.3814348,4.85221739 37.9079565,4.89221739 C36.7462174,4.92352174 35.4783913,5.46830435 35.0014348,6.36221739 C33.2327391,6.99917391 30.4883913,8.64743478 29.6583913,12.8152609 C28.4357826,13.7339565 27.6331739,15.0839565 27.4392609,16.5643913 C27.2240435,18.2074348 27.7801304,19.8522174 28.9001304,21.0843913 C27.7662174,21.0887391 25.947087,21.1826522 23.8040435,21.6183043 C23.7823043,21.623087 23.761,21.6283043 23.7405652,21.6352609 C22.0883913,20.4691739 19.9588261,20.0235217 18.0553478,20.5217826 C17.9788261,20.5422174 17.9096957,20.5765652 17.8505652,20.6217826 C17.3218696,20.4622174 16.744913,20.3439565 16.1096957,20.2665652 C16.0705652,20.2617826 16.0318696,20.2613478 15.9940435,20.2643913 C15.7175217,19.3713478 15.2427391,18.5622174 14.5896957,17.9091739 C14.5566522,17.8756957 14.481,17.8165652 14.4805652,17.8126522 L14.4740435,17.8191739 C14.3775217,17.1665652 14.1918696,16.4543913 14.1153478,16.1956957 C13.9262174,15.557 13.634913,14.8496087 12.7914348,14.0048261 C12.2544783,13.467 11.6818696,13.1422174 11.2888261,12.9622174 C11.3688261,12.7483043 11.4153478,12.5661304 11.4388261,12.4587391 C11.4483913,12.4165652 11.454913,12.3739565 11.4592609,12.330913 C11.4614348,12.310913 11.6714348,10.2965652 11.9105652,9.10134783 C11.9136087,9.08656522 11.9166522,9.07178261 11.9188261,9.057 C12.5731739,4.95830435 12.5796957,4.89873913 12.5836087,4.85482609 C12.5844783,4.847 12.5853478,4.83830435 12.5862174,4.83047826 C12.614913,4.46178261 12.4875217,4.10352174 12.2275217,3.82178261 C11.9123043,3.48134783 11.4327391,3.28656522 10.911,3.28656522 C10.1788261,3.28656522 9.52447826,3.66047826 9.11491304,4.31308696 C8.87534783,4.69569565 8.69578261,5.15656522 8.57186957,5.54395652 C7.88926087,4.22526087 6.99882609,2.48569565 6.35621739,1.2243913 C6.34491304,1.20221739 6.33273913,1.18047826 6.32056522,1.15873913 C6.09752174,0.783956522 5.58621739,0.346130435 4.87926087,0.345695652 C4.66708696,0.345695652 4.45534783,0.384826087 4.24752174,0.462652174 C3.93708696,0.199173913 3.55578261,0.0543913043 3.1383913,0.0543913043 C2.93491304,0.0543913043 2.72708696,0.0896086957 2.52056522,0.15873913 C1.79752174,0.400913043 1.37708696,1.04613043 1.38186957,1.81308696 C0.817086957,2.02656522 0.43273913,2.47308696 0.324043478,3.04526087 C0.248826087,3.43917391 0.327956522,3.78004348 0.366217391,3.94352174 C0.371869565,3.96786957 0.380130435,4.0043913 0.397956522,4.06221739 C0.380130435,4.087 0.36273913,4.11221739 0.346217391,4.13873913 C-0.056826087,4.77134783 -0.264217391,5.937 1.25317391,9.78395652 Z" id="Stroke-21" stroke="#FEFEFE" stroke-width="0.25" mask="url(#mask-2)"></path>
            <path d="M34.4307391,16.6806522 C34.4042174,16.581087 34.2768261,16.5797826 34.2337826,16.5806522 C34.122913,16.578913 33.975087,16.6145652 33.8663913,16.655 C33.5737826,16.758913 33.3337826,17.1197826 33.3481304,17.3393478 C33.349,17.3715217 33.3607391,17.398913 33.382913,17.4215217 C33.3998696,17.4402174 33.4342174,17.4636957 33.4903043,17.4641304 C33.4903043,17.4641304 33.4937826,17.4641304 33.4955217,17.4636957 L33.4959565,17.4636957 L33.4968261,17.4641304 C33.5520435,17.4628261 33.5863913,17.4193478 33.5911739,17.3663043 C33.5963913,17.3115217 33.629,17.2093478 33.7076957,17.1315217 C33.7863913,17.0536957 33.9176957,16.9284783 34.2946522,16.8484783 C34.3607391,16.8332609 34.4563913,16.7802174 34.4307391,16.6806522" id="Fill-22" fill="#231F20" mask="url(#mask-2)"></path>
            <path d="M39.0515652,19.0753478 C38.7289565,19.1757826 38.3833043,19.1953478 38.0415652,19.1666522 C37.7076522,19.1379565 37.375913,19.0631739 37.0702609,18.9192609 C36.7328696,18.7605652 36.4533043,18.524913 36.1946087,18.2657826 C37.405913,18.561 38.6872174,18.7205652 39.9198261,18.5888261 C39.6589565,18.7944783 39.3776522,18.9731739 39.0515652,19.0753478 M41.6885217,17.4605652 C41.5646087,17.4462174 41.5315652,17.5527391 41.5815652,17.5940435 C41.5967826,17.6066522 41.6137391,17.6240435 41.6298261,17.6444783 C41.5850435,17.6675217 41.5406957,17.6966522 41.4993913,17.7166522 C41.2215652,17.8492609 40.9215652,17.9405652 40.6185217,18.0088261 C39.8806957,18.1727391 39.1093913,18.1936087 38.3493913,18.1301304 C37.112,18.0275217 35.8633043,17.751 34.7106957,17.267087 C34.6072174,17.2231739 34.5076522,17.1762174 34.405913,17.1301304 C34.3546087,17.1083913 34.3067826,17.0775217 34.2533043,17.057087 L34.2533043,17.0557826 C34.0893913,17.0044783 33.925913,17.1127391 33.9185217,17.2792609 C33.9133043,17.404913 33.9946087,17.4823043 34.0998261,17.5366522 C34.4085217,17.6962174 34.7406957,17.8201304 35.0689565,17.9353478 C35.3554783,18.0618696 35.5667826,18.3201304 35.778087,18.5379565 C36.0398261,18.8066522 36.3215652,19.0575217 36.652,19.2462174 C37.2763478,19.6031739 38.0576522,19.7244783 38.7563478,19.6162174 C39.1241739,19.5592609 39.472,19.4275217 39.7824348,19.2340435 C40.0106957,19.0918696 40.2146087,18.9205652 40.4228696,18.7523043 C40.5467826,18.6527391 40.6728696,18.5536087 40.8128696,18.4723043 C40.8946087,18.4257826 41.4611304,18.1988261 41.7606957,18.0266522 C41.7611304,18.1323043 41.7572174,18.2244783 41.8272174,18.237087 C41.9054783,18.2514348 41.9754783,18.1062174 42.0028696,17.9836087 C42.0315652,17.8614348 42.0063478,17.7436087 41.9737391,17.6666522 C41.9428696,17.5888261 41.8124348,17.4757826 41.6885217,17.4605652" id="Fill-23" fill="#231F20" mask="url(#mask-2)"></path>
            <path d="M34.8209565,13.2215217 C34.8644348,12.7497826 35.1366087,11.2745652 36.3166087,11.3928261 C37.2148696,11.4823913 37.4557391,12.1454348 37.5218261,12.7241304 C37.5235652,12.7493478 37.5244348,12.7758696 37.5261739,12.8023913 C37.5831304,13.375 37.4761739,13.7684783 37.3331304,14.1393478 C37.2753043,14.285 37.2061739,14.4245652 37.1261739,14.5523913 C36.9070435,14.8980435 36.640087,15.1106522 36.4105217,15.1206522 C36.3905217,15.1215217 36.3674783,15.1219565 36.3435652,15.1215217 C36.7422609,14.9106522 37.0566087,14.3771739 37.1144348,13.7280435 C37.1922609,12.8567391 36.777913,12.1071739 36.1874783,12.0567391 C35.9070435,12.0323913 35.637913,12.1719565 35.424,12.4167391 C35.6335652,12.4154348 35.810087,12.6297826 35.8235652,12.9036957 C35.8357391,13.1836957 35.6713913,13.4193478 35.4548696,13.431087 C35.2787826,13.4397826 35.1231304,13.2980435 35.0644348,13.0932609 C35.0226957,13.2345652 34.9931304,13.3854348 34.9787826,13.5428261 C34.9305217,14.075 35.0666087,14.5593478 35.3126957,14.8693478 C35.277913,14.8397826 35.2444348,14.8076087 35.2144348,14.7715217 C35.0305217,14.5497826 34.897913,14.201087 34.8409565,13.791087 C34.8153043,13.6045652 34.8092174,13.4158696 34.8209565,13.2215217 M34.9583478,14.9763043 C35.0970435,15.1436957 35.2626957,15.2506522 35.4457391,15.3184783 C35.6070435,15.378913 35.7813913,15.4093478 35.9618261,15.4236957 C35.9618261,15.4236957 36.2505217,15.4532609 36.427913,15.4463043 C37.1531304,15.4163043 37.8357391,14.3032609 37.8583478,13.2136957 C37.8796522,12.2197826 37.7474783,11.4593478 37.0309565,11.0136957 C36.957913,10.9676087 36.8792174,10.9297826 36.7966087,10.8993478 C36.4896522,10.7845652 36.1313913,10.7706522 35.8248696,10.855 C35.4505217,10.9558696 35.1644348,11.2228261 34.9687826,11.5515217 C34.767913,11.8871739 34.647913,12.2702174 34.5661739,12.651087 C34.4835652,13.0428261 34.4583478,13.4336957 34.5135652,13.8319565 C34.5683478,14.228913 34.7009565,14.6636957 34.9583478,14.9763043" id="Fill-24" fill="#231F20" mask="url(#mask-2)"></path>
            <path d="M42.1296522,14.1878696 C42.0913913,14.3761304 42.0383478,14.557 41.9661739,14.7291739 C41.8096522,15.1074348 41.597913,15.4083043 41.370087,15.5752609 C41.2718261,15.647 41.1635652,15.690913 41.0413913,15.7113478 C41.4157391,15.4874348 41.7087826,14.9665652 41.7657391,14.3361304 C41.8444348,13.4652609 41.4409565,12.717 40.864,12.6683043 C40.5887826,12.6443913 40.3248696,12.7843913 40.1144348,13.030913 C40.3192174,13.0291739 40.4918261,13.2413478 40.5048696,13.5161304 C40.5166087,13.7965652 40.3544348,14.0326522 40.1422609,14.0443913 C39.970087,14.0535217 39.817913,13.9122174 39.7609565,13.7083043 C39.7196522,13.8496087 39.690087,14.0000435 39.6757391,14.1578696 C39.6226957,14.7396087 39.7853043,15.2652609 40.0705217,15.5656957 C39.8953043,15.4596087 39.7383478,15.2152609 39.6392174,14.8852609 C39.5957391,14.7422174 39.5670435,14.5917826 39.550087,14.4365652 C39.510087,14.0452609 39.5096522,13.6404783 39.707913,13.1061304 C39.7153043,13.0804783 39.7231304,13.0556957 39.7313913,13.0317826 C39.9387826,12.4935217 40.3326957,11.9191739 41.194,12.0591739 C42.3274783,12.2417826 42.2092174,13.7243913 42.1296522,14.1878696 M42.414,12.5496087 C42.3144348,12.1848261 42.1144348,11.8578696 41.7909565,11.6652609 C41.524,11.5078696 41.1857391,11.4313478 40.870087,11.4635217 C40.7853043,11.473087 40.7026957,11.4891739 40.6222609,11.5143913 C39.8387826,11.7626522 39.5244348,12.4587391 39.2931304,13.4178696 C39.037913,14.4674348 39.3944348,15.7065652 40.0648696,15.9174348 C40.2287826,15.9691739 40.5057391,16.013087 40.5057391,16.013087 C40.6787826,16.0448261 40.8492174,16.0600435 41.0148696,16.0422174 C41.2035652,16.023087 41.3853043,15.9626522 41.5570435,15.8361304 C41.8774783,15.600913 42.1109565,15.2174348 42.2631304,14.8500435 C42.4148696,14.4822174 42.4913913,14.1022174 42.5118261,13.7052609 C42.5318261,13.3191739 42.5166087,12.920913 42.414,12.5496087" id="Fill-25" fill="#231F20" mask="url(#mask-2)"></path>
        </g>
    </g>
</svg>